<?xml version="1.0" encoding="UTF-8"?>
<svg id="Layer_1" xmlns="http://www.w3.org/2000/svg" version="1.1" viewBox="0 0 610 610">
  <!-- Generator: Adobe Illustrator 30.4.0, SVG Export Plug-In . SVG Version: 2.1.4 Build 226)  -->
  <defs>
    <style>
      .st0 {
        fill: #444;
      }
    </style>
  </defs>
  <path class="st0" d="M237.3585357,446.9936773H73.171929V149.6406578c0-5.0864256-1.27561-8.902593-3.8191088-11.4538131-2.5512099-2.544704-6.2051071-3.8185369-10.978268-3.8185369-4.4592936,0-7.956252,1.2738329-10.4997712,3.8185369-2.5512099,2.5512201-3.819119,6.367367-3.819119,11.4538131v308.3312568c0,4.7731609,1.3502188,8.5176712,4.0583776,11.2145749,2.6986706,2.709936,6.2785413,4.0583878,10.7390196,4.0583878h178.5055174c4.7731813,0,8.3530111-1.1127679,10.7390196-3.3406325,2.3865804-2.2213688,3.5798707-5.5649428,3.5798707-10.0242261,0-4.1294321-1.1932902-7.314903-3.5798707-9.545709-2.3860085-2.2219408-5.9658383-3.3406325-10.7390196-3.3406325h-.0000409Z"/>
  <path class="st0" d="M562.1287758,137.7083684c-2.5512201-2.5417421-6.0499557-3.8185369-10.5033153-3.8185369-4.7725481,0-8.4329819,1.2767948-10.9747239,3.8185369-2.5512201,2.5512201-3.8191088,6.3703289-3.8191088,11.456775v140.3225999h-214.7809232v-140.3225794c0-5.0864256-1.2773667-8.9055549-3.8191088-11.456775-2.5512201-2.5417421-6.2056893-3.8185369-10.9782782-3.8185369-4.4592834,0-7.9580189,1.2767948-10.499761,3.8185369-2.5512201,2.5512201-3.8191497,6.3703289-3.8191497,11.456775v311.6689479c0,4.7725481,1.2679296,8.5170584,3.8191497,11.2175164,2.5417421,2.700458,6.0404777,4.0583878,10.499761,4.0583878,5.0864256,0,8.8309359-1.3579299,11.2175164-4.0583878,2.3865804-2.700458,3.5798707-6.4449683,3.5798707-11.2175164v-145.0951684h214.7809232v145.0951684c0,4.7725481,1.2678887,8.5170584,3.8191088,11.2175164,2.5417421,2.700458,6.202135,4.0583878,10.9747239,4.0583878,4.4533596,0,7.9520952-1.3579299,10.5033153-4.0583878,2.5417421-2.700458,3.8155546-6.4449683,3.8155546-11.2175164V149.1651638c0-5.0864256-1.2738125-8.9055549-3.8155546-11.456775v-.0000204Z"/>
</svg>