<?xml version="1.0" encoding="UTF-8"?>
<svg id="Layer_1" xmlns="http://www.w3.org/2000/svg" version="1.1" viewBox="0 0 473.7606971 35.4674">
  <!-- Generator: Adobe Illustrator 30.4.0, SVG Export Plug-In . SVG Version: 2.1.4 Build 226)  -->
  <defs>
    <style>
      .st0 {
        fill: #444;
      }
    </style>
  </defs>
  <path class="st0" d="M19.9226701,32.3682539H3.0008266V1.7217122c0-.5242639-.1314663-.917542-.3935983-1.1804746-.2629326-.2622921-.6395572-.3935983-1.1314749-.3935983-.4595716,0-.8200231.1313062-1.0821551.3935983-.2629326.2629326-.3935983.6562106-.3935983,1.1804746v31.7780167c0,.4919178.1391525.8778298.4182582,1.1558146.2781449.2792658.6470833.4182582,1.106815.4182582h18.3975968c.4919178,0,.8608561-.1146527,1.106815-.3442784.2459589-.2289852.3689383-.5735838.3689383-1.0331554,0-.4256242-.1229794-.7538896-.3689383-.9838356-.2459589-.2289852-.6148972-.3442784-1.106815-.3442784Z"/>
  <path class="st0" d="M43.337444,1.4757533c-.1967991-.4919178-.4512449-.8438824-.7625366-1.0574951-.3120924-.2129722-.664057-.3199387-1.0576553-.3199387-.3281053,0-.6563708.1069665-.9838356.3199387-.3281053.2136127-.607211.5655773-.8361962,1.0574951l-13.8228576,31.7780167c-.1646131.3935983-.2382727.7548504-.2214591,1.0821551.0161731.3282654.1476394.5825511.3935983.7625366.2459589.1796653.5817504.2706188,1.0083354.2706188.3606116,0,.6802301-.1069665.9593357-.3199387.2781449-.2129722.5164176-.5655773.7132167-1.0574951l3.4739291-8.1659632h18.6319463l3.4738491,8.1659632c.1967991.4265849.4342712.7625366.7133769,1.0084955.2781449.2459589.6470833.3689383,1.106815.3689383.4257843,0,.7455629-.0909535.9591756-.2706188.2129722-.1799855.3274648-.4342712.3442784-.7625366.0161731-.3273047-.0736596-.6885568-.2704587-1.0821551L43.337444,1.4757533ZM41.4680923,4.1323015h.0983195l8.159478,19.0861536h-16.3693968l8.1115993-19.0861536Z"/>
  <path class="st0" d="M94.151814.0983195c-.4265849,0-.7463635.0823066-.9593357.2459589-.2136127.1646131-.4349117.4265849-.664057.7871966l-13.284182,25.3990184L65.8665417,1.1314749c-.1967991-.3606116-.4104119-.6225834-.6395572-.7871966-.2297858-.1636523-.5580513-.2459589-.9838356-.2459589-.3934381,0-.7132167.1229794-.9591756.3689383s-.3689383.6148972-.3689383,1.106815v32.3192543c0,.4595716.1229794.819863.3689383,1.0821551.2459589.2619718.5817504.3935983,1.0083354.3935983.4589311,0,.8032095-.1316264,1.0331554-.3935983.2289852-.2622921.3442784-.6225834.3442784-1.0821551V6.2021352l12.1503051,22.8210138c.1638125.2952788.3521247.5335514.5657375.7132167.2129722.1806261.5165777.2706188.9100159.2706188.3606116,0,.6395572-.0813458.8363563-.2459589.1967991-.1636523.3766245-.4096112.5410775-.7378767l12.0028258-22.7515976v27.6217758c0,.4595716.1229794.819863.3689383,1.0821551.2459589.2619718.5979235.3935983,1.0576553.3935983.458771,0,.8032095-.1316264,1.0329953-.3935983.2289852-.2622921.3442784-.6225834.3442784-1.0821551V1.5740728c0-.4919178-.1229794-.8608561-.3689383-1.106815s-.5657375-.3689383-.9591756-.3689383Z"/>
  <path class="st0" d="M121.355892,17.3336165c1.4948087-.5285074,2.7329299-1.3371613,3.7127623-2.4284437,1.2951273-1.4427667,1.9431713-3.2467854,1.9431713-5.4110956,0-1.9676711-.442758-3.62341-1.3282741-4.9684977-.8853559-1.3441269-2.1482972-2.3686353-3.7877028-3.0744861-1.6402063-.7045697-3.6571973-1.0574951-6.0506527-1.0574951h-11.5600678c-.5249045,0-.9346758.1476394-1.2297944.4425979-.2951186.2952788-.442758.7218637-.442758,1.2791143v31.236779c0,.5578911.1476394.9838356.442758,1.2791143.2951186.2949585.70489.4425979,1.2297944.4425979h12.199625c3.6070768,0,6.3949311-.8032095,8.3626023-2.410269,1.9676711-1.606419,2.9515067-3.9516754,2.9515067-7.0344883,0-2.4595889-.7133769-4.4349462-2.1398103-5.9276733-1.1164228-1.1675041-2.5539852-1.9529392-4.3031597-2.3677546ZM105.5640823,2.9515067h9.9368352c2.7547075,0,4.8530443.5658976,6.2964515,1.6970523,1.4427667,1.1314749,2.1644703,2.7795276,2.1644703,4.9438377,0,2.1646304-.7217036,3.8123628-2.1644703,4.9438377-1.4434072,1.1314749-3.541744,1.6970523-6.2964515,1.6970523h-9.9368352V2.9515067ZM122.6337253,30.818841c-1.4104205,1.1311547-3.5419041,1.6970523-6.3949311,1.6970523h-10.6747119v-13.7246982h10.6747119c2.853027,0,4.9845106.5582114,6.3949311,1.6727126,1.4096199,1.1151417,2.1151504,2.8531872,2.1151504,5.2141363,0,2.2959366-.7055305,4.0093221-2.1151504,5.140797Z"/>
  <path class="st0" d="M157.0674895,2.1399704c-2.3289232-1.4267537-5.0998039-2.1399704-8.3134425-2.1399704-2.3942561,0-4.5502395.410572-6.4687508,1.2297944-1.9185114.8201832-3.5502308,1.9923311-4.8945179,3.5174043-1.3450877,1.524753-2.3697563,3.3780916-3.0744861,5.5584147-.7056906,2.1816041-1.0576553,4.6488792-1.0576553,7.4034266,0,3.6403837.6310703,6.7885294,1.8938514,9.4447573,1.2621406,2.6565482,3.0575124,4.7065258,5.3864356,6.1489722,2.3282827,1.4437274,5.0668172,2.1646304,8.215123,2.1646304,2.3934554,0,4.5502395-.4096112,6.4687508-1.2297944,1.9183512-.8195427,3.5494302-2.0000173,4.8945179-3.541744,1.344287-1.5410862,2.3772823-3.4104378,3.0991461-5.6080548.7209029-2.1966563,1.0821551-4.6732189,1.0821551-7.4277663,0-3.6403837-.6233841-6.7802027-1.8693516-9.4204176-1.246608-2.6392542-3.0336531-4.6732189-5.3617757-6.0996524ZM159.6500578,25.8256834c-.9678226,2.2306037-2.3697563,3.9353422-4.2059611,5.1161371-1.8370055,1.1804746-4.0668085,1.7707119-6.6900498,1.7707119-3.8700094,0-6.8868489-1.3197872-9.0513192-3.9600022-2.1644703-2.6392542-3.2466253-6.3209513-3.2466253-11.0434901,0-3.1481457.4834309-5.8367197,1.4510934-8.0673235.967022-2.2299632,2.3689556-3.9353422,4.2059611-5.1161371,1.8362048-1.1804746,4.0498348-1.7707119,6.64089-1.7707119,3.9353422,0,6.9766816,1.303454,9.1249787,3.9106823,2.1476567,2.6072283,3.2221255,6.2889254,3.2221255,11.0434901,0,3.1814526-.4842316,5.8870004-1.4510934,8.1166434Z"/>
  <path class="st0" d="M196.3217917.0983195c-.4919178,0-.8691828.1229794-1.1313148.3689383-.2629326.2459589-.3935983.6318709-.3935983,1.1561349v19.6767112c0,3.8370227-.8853559,6.6985366-2.656388,8.5839012-1.770872,1.8863253-4.3949139,2.8285272-7.8706845,2.8285272-3.4434245,0-6.0589795-.9422019-7.8460245-2.8285272-1.7878457-1.8853646-2.6808878-4.7468785-2.6808878-8.5839012V1.6233927c0-.5242639-.1314663-.910176-.3935983-1.1561349-.2629326-.2459589-.6395572-.3689383-1.1314749-.3689383-.4595716,0-.8200231.1229794-1.0821551.3689383-.2629326.2459589-.3935983.6318709-.3935983,1.1561349v19.9226701c0,2.2629499.2867919,4.2636077.8608561,6.0013329.5734237,1.738686,1.4265936,3.1974656,2.5580685,4.3782604,1.1313148,1.1804746,2.5494215,2.0659906,4.2551208,2.6562279,1.7047385.5902373,3.6562365.8855161,5.8536935.8855161,2.9515067,0,5.4357555-.5242639,7.4525864-1.5740728,2.0168309-1.0491684,3.5334172-2.6149145,4.5502395-4.6978788,1.0161817-2.0823238,1.5249131-4.6319055,1.5249131-7.6493855V1.6233927c0-.5242639-.1313062-.910176-.3934381-1.1561349-.2629326-.2459589-.6233841-.3689383-1.0823152-.3689383Z"/>
  <path class="st0" d="M225.7385389,23.464414c-.7546903-1.4757533-1.5987328-2.5409347-2.5334086-3.1974656-.3705396-.2598902-.7667-.466217-1.1862392-.623224,1.0380394-.1884724,1.9913703-.4722219,2.8587917-.8525294,1.7217122-.7538896,3.0253264-1.8607046,3.9108424-3.320445.8853559-1.4587796,1.328114-3.2051518,1.328114-5.2387962,0-3.1481457-.9838356-5.5747479-2.9515067-7.2804472-1.9676711-1.7047385-4.7885121-2.5579084-8.4609218-2.5579084h-11.5600678c-.4597318,0-.8286701.1313062-1.106815.3935983-.2791057.2629326-.4182582.6562106-.4182582,1.1804746v31.8270163c0,.4919178.1306657.8778298.3935983,1.1561349.262132.278305.6225834.4182582,1.0821551.4182582.5242639,0,.910176-.1399532,1.1561349-.4182582s.3689383-.6642171.3689383-1.1561349v-13.7243779h7.0343282c1.770872,0,3.180652.2542856,4.2304609.7625366,1.0491684.5088915,2.0000173,1.5494129,2.8531872,3.1234857l5.5094151,10.2812737c.1967991.3612521.4342712.6395572.7133769.8361962.2781449.196639.6310703.2952788,1.0576553.2952788.3604515,0,.6555701-.1069665.8853559-.3199387.2291453-.2129722.3521247-.4919178.3690985-.8361962.0160129-.3442784-.0909535-.696243-.3199387-1.0574951l-5.2142964-9.6910365ZM208.6198963,17.5124011V3.0008266h9.6907162c2.91852,0,5.1074901.6148972,6.5670703,1.8446917,1.4589397,1.2297944,2.1891302,3.0251662,2.1891302,5.3864356,0,2.3942561-.7301905,4.2059611-2.1891302,5.4357555-1.4595803,1.2297944-3.6485503,1.8446917-6.5670703,1.8446917h-9.6907162Z"/>
  <path class="st0" d="M263.9113266.0983195c-.4598919,0-.8118565.1229794-1.0578154.3689383s-.3689383.6148972-.3689383,1.106815v28.3860738L240.98783,1.0331554c-.2299459-.3606116-.4425979-.6065705-.6395572-.7378767-.196639-.1306657-.5088915-.1969593-.9345157-.1969593-.3935983,0-.7055305.1316264-.9348359.3935983-.2296257.2629326-.3442784.6565309-.3442784,1.1807948v32.1712947c0,.4919178.1229794.8691828.3689383,1.1314749.2459589.2619718.5979235.3935983,1.0578154.3935983.4256242,0,.7622164-.1316264,1.0081752-.3935983.2459589-.2622921.3689383-.6395572.3689383-1.1314749V5.4440022l21.4970632,28.9902424c.2619718.3282654.5079307.5658976.7378767.7132167.2289852.1476394.5239437.2216192.8851958.2216192.3935983,0,.6965633-.1316264.910176-.3935983.2129722-.2622921.3196185-.6395572.3196185-1.1314749V1.5740728c0-.4919178-.1229794-.8608561-.3689383-1.106815s-.5825511-.3689383-1.0081752-.3689383Z"/>
  <path class="st0" d="M293.6223918,3.0008266c.4589311,0,.8032095-.1060057,1.0331554-.3199387.2289852-.212652.3442784-.5486036.3442784-1.0081752,0-.3935983-.1152932-.70489-.3442784-.9348359-.2299459-.2289852-.5742243-.3442784-1.0331554-.3442784h-18.5942359c-.5252247,0-.9348359.1476394-1.2297944.4425979-.2952788.2952788-.4429182.7218637-.4429182,1.2791143v31.236779c0,.5578911.1476394.9838356.4429182,1.2791143.2949585.2949585.7045697.4425979,1.2297944.4425979h18.5942359c.4589311,0,.8032095-.1146527,1.0331554-.3442784.2289852-.2289852.3442784-.5572506.3442784-.9838356,0-.4259444-.1152932-.7455629-.3442784-.9591756-.2299459-.2129722-.5742243-.3199387-1.0331554-.3199387h-17.3154418v-13.6753783h16.3316062c.4589311,0,.8032095-.1143325,1.0331554-.3442784.2289852-.2289852.3442784-.5572506.3442784-.9838356,0-.4256242-.1152932-.7455629-.3442784-.9591756-.2299459-.2129722-.5742243-.3196185-1.0331554-.3196185h-16.3316062V3.0008266h17.3154418Z"/>
  <path class="st0" d="M340.7475386.0983195c-.4919178,0-.8691828.1316264-1.1311547.3935983-.2629326.2629326-.3935983.6565309-.3935983,1.1807948v14.4622546h-22.1363001V1.6727126c0-.5242639-.1316264-.9178622-.3935983-1.1807948-.2629326-.2619718-.6395572-.3935983-1.1314749-.3935983-.4595716,0-.8201832.1316264-1.0821551.3935983-.2629326.2629326-.3935983.6565309-.3935983,1.1807948v32.1219748c0,.4919178.1306657.8778298.3935983,1.1561349.2619718.278305.6225834.4182582,1.0821551.4182582.5242639,0,.910176-.1399532,1.1561349-.4182582s.3689383-.6642171.3689383-1.1561349v-14.9541724h22.1363001v14.9541724c0,.4919178.1306657.8778298.3935983,1.1561349.2619718.278305.6392369.4182582,1.1311547.4182582.4589311,0,.8195427-.1399532,1.0824753-.4182582.2619718-.278305.393278-.6642171.393278-1.1561349V1.6727126c0-.5242639-.1313062-.9178622-.393278-1.1807948-.2629326-.2619718-.6235442-.3935983-1.0824753-.3935983Z"/>
  <path class="st0" d="M372.7221943,2.1399704c-2.3289232-1.4267537-5.0998039-2.1399704-8.3136026-2.1399704-2.3942561,0-4.5502395.410572-6.4685907,1.2297944-1.9183512.8201832-3.550391,1.9923311-4.8945179,3.5174043-1.3450877,1.524753-2.3695961,3.3780916-3.0744861,5.5584147-.7055305,2.1816041-1.0578154,4.6488792-1.0578154,7.4034266,0,3.6403837.6312304,6.7885294,1.8940116,9.4447573,1.2621406,2.6565482,3.0575124,4.7065258,5.3864356,6.1489722,2.3282827,1.4437274,5.0668172,2.1646304,8.2149629,2.1646304,2.3936155,0,4.5502395-.4096112,6.468911-1.2297944,1.9183512-.8195427,3.5494302-2.0000173,4.8945179-3.541744,1.3444472-1.5410862,2.3772823-3.4104378,3.0991461-5.6080548.7209029-2.1966563,1.0821551-4.6732189,1.0821551-7.4277663,0-3.6403837-.623224-6.7802027-1.8693516-9.4204176-1.2467682-2.6392542-3.0338132-4.6732189-5.3617757-6.0996524ZM375.3047627,25.8256834c-.9678226,2.2306037-2.3695961,3.9353422-4.2059611,5.1161371-1.8370055,1.1804746-4.0666484,1.7707119-6.6902099,1.7707119-3.8700094,0-6.8868489-1.3197872-9.051159-3.9600022-2.1643101-2.6392542-3.2467854-6.3209513-3.2467854-11.0434901,0-3.1481457.483591-5.8367197,1.4514137-8.0673235.9668618-2.2299632,2.3686353-3.9353422,4.2056408-5.1161371,1.8363649-1.1804746,4.0499949-1.7707119,6.64089-1.7707119,3.9353422,0,6.9768417,1.303454,9.1251389,3.9106823,2.1476567,2.6072283,3.2221255,6.2889254,3.2221255,11.0434901,0,3.1814526-.4842316,5.8870004-1.4510934,8.1166434Z"/>
  <path class="st0" d="M411.9763364.0983195c-.4919178,0-.8691828.1229794-1.1314749.3689383-.2626124.2459589-.393278.6318709-.393278,1.1561349v19.6767112c0,3.8370227-.8855161,6.6985366-2.6565482,8.5839012-1.7707119,1.8863253-4.3949139,2.8285272-7.8706845,2.8285272-3.4434245,0-6.0589795-.9422019-7.8460245-2.8285272-1.7876856-1.8853646-2.6808878-4.7468785-2.6808878-8.5839012V1.6233927c0-.5242639-.1316264-.910176-.3935983-1.1561349-.2629326-.2459589-.6395572-.3689383-1.1314749-.3689383-.4595716,0-.8201832.1229794-1.0821551.3689383-.2629326.2459589-.3935983.6318709-.3935983,1.1561349v19.9226701c0,2.2629499.2866318,4.2636077.8608561,6.0013329.5735838,1.738686,1.4267537,3.1974656,2.5579084,4.3782604,1.1314749,1.1804746,2.5495817,2.0659906,4.2552809,2.6562279,1.7047385.5902373,3.6563967.8855161,5.8536935.8855161,2.9515067,0,5.4357555-.5242639,7.4527465-1.5740728,2.0166707-1.0491684,3.533097-2.6149145,4.5502395-4.6978788,1.0158615-2.0823238,1.524753-4.6319055,1.524753-7.6493855V1.6233927c0-.5242639-.1313062-.910176-.3935983-1.1561349-.2626124-.2459589-.623224-.3689383-1.0821551-.3689383Z"/>
  <path class="st0" d="M443.1147959,20.3899279c-1.6073798-1.3604601-4.0669687-2.3856091-7.3787667-3.0744861l-5.0178176-1.0328352c-2.3289232-.4589311-4.0173285-1.1968078-5.0664969-2.21363-1.0501292-1.0161817-1.5743931-2.3772823-1.5743931-4.0829816,0-1.4757533.3766245-2.7548677,1.1314749-3.8370227.7542099-1.0821551,1.811705-1.9183512,3.1728056-2.5085885,1.3604601-.5905575,2.9591929-.8855161,4.7961983-.8855161,1.8033783,0,3.4511107.2542856,4.9438377.7625366,1.4920865.5085712,2.9268467,1.3204277,4.3042806,2.434929.3276249.2629326.6395572.3859121.9348359.3689383.2949585-.0163332.5409174-.1060057.7378767-.2706188.196639-.1636523.3442784-.3849513.4425979-.6642171.0983195-.2779848.0983195-.5732636,0-.8851958-.0983195-.3112917-.2952788-.5819106-.5902373-.8118565-1.4757533-1.2787941-3.1074728-2.21363-4.8945179-2.8038673-1.7880058-.5902373-3.74703-.8855161-5.8786737-.8855161-1.8036985,0-3.4517512.2382727-4.9435175.7132167-1.4927271.4759048-2.7795276,1.1561349-3.8616827,2.0416509-1.0821551.8855161-1.9183512,1.9430112-2.5089088,3.1728056-.5902373,1.2297944-.8851958,2.5995421-.8851958,4.1076416,0,2.4595889.7538896,4.42726,2.2626296,5.9030134,1.5080995,1.4757533,3.820049,2.5255622,6.9361688,3.1481457l4.9681774,1.0331554c2.5902546.5249045,4.45192,1.2464479,5.5833949,2.1643101,1.1314749.9185027,1.6970523,2.1976171,1.6970523,3.8370227,0,1.9676711-.7791901,3.5587177-2.3366095,4.7715384-1.5580599,1.2137815-3.8946693,1.8200317-7.0098284,1.8200317-2.2306037,0-4.1896279-.2619718-5.8783534-.7868763-1.6893661-.5242639-3.2880989-1.3444472-4.7961983-2.4595889-.3282654-.2293054-.6395572-.3359517-.9345157-.3199387-.2952788.0169737-.5495644.1229794-.7625366.3199387-.2136127.196639-.3612521.4349117-.4429182.7132167-.0819863.2789456-.0659733.5742243.0493199.8855161.1146527.3119322.3359517.5825511.6642171.8115362,1.0158615.7871966,2.1559834,1.4510934,3.4187645,1.9923311,1.2621406.5409174,2.631568.9431627,4.1073213,1.2051345s3.0008266.3935983,4.5748994.3935983c1.9346844,0,3.6647234-.2212989,5.1897966-.6642171,1.5250732-.4425979,2.8285272-1.0898413,3.9106823-1.9430112,1.0821551-.8525294,1.9100245-1.8607046,2.4842488-3.0251662.5732636-1.1638211.8608561-2.4512622.8608561-3.8616827,0-2.3612694-.80385-4.221974-2.410269-5.5833949Z"/>
  <path class="st0" d="M472.3832632,32.4665734h-17.3154418v-13.6753783h16.3316062c.4589311,0,.8032095-.1143325,1.0331554-.3442784.2289852-.2289852.3442784-.5572506.3442784-.9838356,0-.4256242-.1152932-.7455629-.3442784-.9591756-.2299459-.2129722-.5742243-.3196185-1.0331554-.3196185h-16.3316062V3.0008266h17.3154418c.4589311,0,.8032095-.1060057,1.0331554-.3199387.2289852-.212652.3442784-.5486036.3442784-1.0081752,0-.3935983-.1152932-.70489-.3442784-.9348359-.2299459-.2289852-.5742243-.3442784-1.0331554-.3442784h-18.5942359c-.5252247,0-.9348359.1476394-1.2297944.4425979-.2952788.2952788-.4429182.7218637-.4429182,1.2791143v31.236779c0,.5578911.1476394.9838356.4429182,1.2791143.2949585.2949585.7045697.4425979,1.2297944.4425979h18.5942359c.4589311,0,.8032095-.1146527,1.0331554-.3442784.2289852-.2289852.3442784-.5572506.3442784-.9838356,0-.4259444-.1152932-.7455629-.3442784-.9591756-.2299459-.2129722-.5742243-.3199387-1.0331554-.3199387Z"/>
</svg>