<?xml version="1.0" encoding="UTF-8"?>
<svg id="Layer_1" xmlns="http://www.w3.org/2000/svg" version="1.1" viewBox="0 0 610 610">
  <!-- Generator: Adobe Illustrator 29.8.4, SVG Export Plug-In . SVG Version: 2.1.1 Build 6)  -->
  <defs>
    <style>
      .st0 {
        fill: #fff;
      }
    </style>
  </defs>
  <path class="st0" d="M254.471817,411.0692749h-122.6474152v-222.1227417c0-3.7995605-.9528809-6.650238-2.8528824-8.5559998-1.9057541-1.9008942-4.6352158-2.8524475-8.2007675-2.8524475-3.3310928,0-5.9433212.9515533-7.8433266,2.8524475-1.9057541,1.9057617-2.8528824,4.756424-2.8528824,8.5559998v230.3234863c0,3.5655518,1.0086174,6.3627014,3.0316048,8.3772888,2.0159073,2.0243225,4.6900711,3.0316162,8.022049,3.0316162h133.3436356c3.5655518,0,6.2397156-.8312378,8.022049-2.4954529,1.7827759-1.6593628,2.6741638-4.1570129,2.6741638-7.4880981,0-3.0846863-.8913879-5.4642334-2.6741638-7.1306458-1.7823334-1.65979-4.4564972-2.4954529-8.022049-2.4954529h-.0000153Z"/>
  <path class="st0" d="M497.0752258,180.0331116c-1.9057617-1.8986816-4.5193176-2.8524475-7.8459778-2.8524475-3.565094,0-6.2994385.9537659-8.1981201,2.8524475-1.9057617,1.9057617-2.8528748,4.7586365-2.8528748,8.5582123v104.8209991h-160.4413757v-104.8209839c0-3.7995605-.9541931-6.6524506-2.8528748-8.5582123-1.9057617-1.8986816-4.6356506-2.8524475-8.2007751-2.8524475-3.3310852,0-5.9446411.9537659-7.8433228,2.8524475-1.9057617,1.9057617-2.85289,4.7586365-2.85289,8.5582123v232.8167419c0,3.565094.9471283,6.3622437,2.85289,8.3794861,1.8986816,2.0172424,4.5122375,3.0316162,7.8433228,3.0316162,3.7995605,0,6.5967102-1.0143738,8.3794861-3.0316162s2.6741638-4.8143921,2.6741638-8.3794861v-108.3861084h160.4413757v108.3861084c0,3.565094.947113,6.3622437,2.8528748,8.3794861,1.8986816,2.0172424,4.6329956,3.0316162,8.1981201,3.0316162,3.3266602,0,5.9402161-1.0143738,7.8459778-3.0316162,1.8986816-2.0172424,2.8502197-4.8143921,2.8502197-8.3794861v-232.8167419c0-3.7995605-.9515381-6.6524506-2.8502197-8.5582123v-.0000153Z"/>
  <path class="st0" d="M305,610c-81.46875,0-158.0605469-31.7255859-215.6674805-89.3320312C31.7255859,463.0605469,0,386.46875,0,305S31.7255859,146.9394531,89.3325195,89.3325195,223.53125,0,305,0s158.0605469,31.7255859,215.6679688,89.3325195c57.6064453,57.6069336,89.3320312,134.1987305,89.3320312,215.6674805s-31.7255859,158.0605469-89.3320312,215.6679688c-57.6074219,57.6064453-134.1992188,89.3320312-215.6679688,89.3320312ZM305,10C142.3364258,10,10,142.3364258,10,305c0,162.6630859,132.3364258,295,295,295,162.6630859,0,295-132.3369141,295-295,0-162.6635742-132.3369141-295-295-295Z"/>
</svg>