<?xml version="1.0" encoding="UTF-8"?>
<svg id="AirConditioning" xmlns="http://www.w3.org/2000/svg" viewBox="0 0 50 50">
  <defs>
    <style>
      .cls-1 {
        fill: #5f5f5f;
      }
    </style>
  </defs>
  <path class="cls-1" d="M23.7749919891,24.9999732971c0,.676574707.5484619141,1.2250366211,1.2250366211,1.2250366211.6765136719,0,1.2249755859-.5484619141,1.2249755859-1.2250366211,0-.6765136719-.5484619141-1.2249755859-1.2249755859-1.2249755859-.676574707,0-1.2250366211.5484619141-1.2250366211,1.2249755859Z"/>
  <path class="cls-1" d="M40.8016033173,33.737827301l-4.0727539062-2.6446533203,3.5823364258-.7616577148c.2716674805-.0578613281.4453125-.3245849609.3873901367-.5953369141-.0578613281-.272644043-.3363647461-.4393920898-.5953369141-.3873901367l-4.5657958984.9708251953-3.4550170898-2.2435913086v-6.1510620117l3.4553833008-2.2440185547,4.5654296875.9702758789c.034362793.0073242188.0696411133.0108032227.1049804688.0108032227.2314453125,0,.4403686523-.1618652344.4903564453-.3977661133.0579223633-.2711791992-.1157226562-.537902832-.3873901367-.5958251953l-3.5818481445-.7611694336,4.072265625-2.6445922852c.232421875-.1510009766.2981567383-.4619140625.1470947266-.6948852539-.1510620117-.2333984375-.4639282227-.2981567383-.6943969727-.1475830078l-4.0961303711,2.6599731445.7693481445-3.6216430664c.0578613281-.2711791992-.1157836914-.5379638672-.3874511719-.5958251953-.2569580078-.0534667969-.5374755859.115234375-.5953369141.3869018555l-.9780273438,4.6043701172-3.395324707,2.2049560547-6.0552978516-3.6815795898v-4.1104736328l3.3002929688-3.3003540039c.1961669922-.1961669922.1961669922-.5139160156,0-.7100830078-.196105957-.1961669922-.5139160156-.1961669922-.7100830078,0l-2.5902099609,2.5902709961v-4.8558959961c0-.2775268555-.224609375-.5021362305-.5021972656-.5021362305-.2775268555,0-.5021362305.224609375-.5021362305.5021362305v4.8842163086l-2.6182250977-2.6185913086c-.1961669922-.1961669922-.5139160156-.1961669922-.7100830078,0s-.1961669922.5139160156,0,.7100830078l3.3283081055,3.3287963867v4.0813598633l-6.0823364258,3.6825561523-3.3958740234-2.2053222656-.9789428711-4.604309082c-.0583496094-.2711791992-.3275756836-.4442749023-.5958251953-.3869018555-.2711791992.0578613281-.4442749023.3246459961-.3869018555.5958251953l.7699584961,3.6214599609-4.0958251953-2.6597900391c-.2333984375-.1510620117-.5438232422-.0848388672-.6948852539.1475830078-.1510009766.2329711914-.084777832.5438842773.147644043.6948852539l4.0722045898,2.64453125-3.5823364258.7612304688c-.2711791992.0579223633-.4442749023.3246459961-.3869018555.5958251953.0505371094.2359008789.2589111328.3977050781.4909057617.3977050781.0343017578,0,.0696411133-.0034179688.1049194336-.0107421875l4.5650634766-.9701538086,3.4553222656,2.2438964844v6.1510620117l-3.4549560547,2.2434692383-4.5654296875-.970703125c-.272644043-.0549316406-.5379638672.1147460938-.5958251953.3873901367-.0573730469.2707519531.1157226562.5374755859.3869018555.5953369141l3.5827026367.7617797852-4.0725708008,2.64453125c-.232421875.1510009766-.2986450195.4619140625-.147644043.6943969727.0961303711.1480712891.2575073242.228515625.4217529297.228515625.0936889648,0,.1883544922-.0264892578.2731323242-.0814208984l4.0961303711-2.6598510742-.7702636719,3.6229858398c-.0573730469.270690918.1157226562.5374755859.3869018555.5953369141.0353393555.0068359375.0701293945.0108032227.1049804688.0108032227.2319335938,0,.4403686523-.1618652344.4908447266-.3981933594l.9790039062-4.6045532227,3.3958129883-2.205078125,6.0823364258,3.6825561523v4.0818481445l-3.3283081055,3.3283081055c-.1961669922.196105957-.1961669922.5139160156,0,.7100830078.0980834961.0980834961.2265625.1470947266.3550415039.1470947266s.2569580078-.0490112305.3550415039-.1470947266l2.6182250977-2.6182250977v4.8838500977c0,.2775268555.224609375.5021362305.5021362305.5021362305.2775878906,0,.5021972656-.224609375.5021972656-.5021362305v-4.8555297852l2.5902099609,2.5899047852c.0980834961.0980834961.2265625.1470947266.3550415039.1470947266s.257019043-.0490112305.3550415039-.1470947266c.1961669922-.1961669922.1961669922-.5139770508,0-.7100830078l-3.3002929688-3.2998657227v-4.1109008789l6.0556640625-3.6813964844,3.3948974609,2.2044677734.9780883789,4.6046142578c.0500488281.236328125.2589111328.3981933594.4904174805.3981933594.0352783203,0,.0706176758-.0039672852.1049194336-.0108032227.2716674805-.0578613281.4453125-.3246459961.3874511719-.5953369141l-.7696533203-3.6231689453,4.0964355469,2.6600341797c.0843505859.0549316406.1795043945.0814208984.2736206055.0814208984.1638183594,0,.3246459961-.0804443359.4207763672-.228515625.1510620117-.2324829102.0853271484-.5433959961-.1470947266-.6943969727ZM31.0780925751,24.9999732971v3.0659790039l-6.0646972656,3.6867675781-6.0911254883-3.6870727539v-6.1303710938l6.0911254883-3.6879882812,6.0646972656,3.6872558594v3.0654296875Z"/>
</svg>