<?xml version="1.0" encoding="UTF-8"?>
<svg id="AudioVisualTech" xmlns="http://www.w3.org/2000/svg" viewBox="0 0 50 50">
  <defs>
    <style>
      .cls-1 {
        fill: #5f5f5f;
      }
    </style>
  </defs>
  <path class="cls-1" d="M24.8555583954,31.8632545471h.2888793945c3.8636474609,0,7.0075073242-3.1438598633,7.0075073242-7.0074462891v-12.6883544922c0-3.8641357422-3.1438598633-7.0074462891-7.0075073242-7.0074462891h-.2888793945c-3.8636474609,0-7.0075073242,3.1433105469-7.0075073242,7.0074462891v12.6883544922c0,3.8635864258,3.1438598633,7.0074462891,7.0075073242,7.0074462891ZM18.8861980438,12.1674537659c0-3.2913208008,2.6774902344-5.9692993164,5.9693603516-5.9692993164h.2888793945c3.2918701172,0,5.9693603516,2.6779785156,5.9693603516,5.9692993164v12.6883544922c0,3.291809082-2.6774902344,5.9692993164-5.9693603516,5.9692993164h-.2888793945c-3.2918701172,0-5.9693603516-2.6774902344-5.9693603516-5.9692993164v-12.6883544922Z"/>
  <path class="cls-1" d="M37.2270793915,25.2308692932v-2.6830444336c0-.2868652344-.2321777344-.5190429688-.5191040039-.5190429688s-.5190429688.2321777344-.5190429688.5190429688v2.6830444336c0,5.9470214844-4.8379516602,10.7849121094-10.7849121094,10.7849121094h-.8080444336c-5.9469604492,0-10.7849121094-4.837890625-10.7849121094-10.7849121094v-2.6830444336c0-.2868652344-.2321166992-.5190429688-.5190429688-.5190429688s-.5190429688.2321777344-.5190429688.5190429688v2.6830444336c0,6.4801635742,5.2427368164,11.7548217773,11.7084350586,11.8172607422v6.7537231445h-8.6518554688c-.2868652344,0-.5190429688.2321777344-.5190429688.5191040039,0,.2868652344.2321777344.5190429688.5190429688.5190429688h18.3408813477c.2868652344,0,.5190429688-.2321777344.5190429688-.5190429688,0-.2869262695-.2321777344-.5191040039-.5190429688-.5191040039h-8.6508789062v-6.7537231445c6.4652099609-.0629882812,11.7075195312-5.3374633789,11.7075195312-11.8172607422Z"/>
</svg>