<?xml version="1.0" encoding="UTF-8"?>
<svg id="BikeStorage" xmlns="http://www.w3.org/2000/svg" viewBox="0 0 50 50">
  <defs>
    <style>
      .cls-1 {
        fill: #5f5f5f;
      }
    </style>
  </defs>
  <path class="cls-1" d="M37.6654949188,22.2403297424c-1.1418457031,0-2.2170410156.2865600586-3.1620483398.7873535156l-2.5866699219-4.1441650391.9162597656-2.7185668945h3.3571166992v-1.9632568359h-3.7787475586l-1.385925293,4.25390625h-11.6315917969v-2.2906494141h.8176879883c.5426025391,0,.9816894531-.4395141602.9816894531-.981628418s-.4390869141-.981628418-.9816894531-.981628418h-3.926574707c-.5425415039,0-.981628418.4395141602-.981628418.981628418s.4390869141.981628418.981628418.981628418h2.1272583008v2.635559082l-2.7984619141,4.2907104492c-.9729003906-.5405883789-2.0905151367-.8508911133-3.2802734375-.8508911133-3.7377319336,0-6.778503418,3.0407714844-6.778503418,6.7794799805,0,3.7377319336,3.0407714844,6.778503418,6.778503418,6.778503418,3.5720825195,0,6.5004882812-2.7789916992,6.7536621094-6.2876586914h5.9233398438c.168762207,0,.325012207-.0863037109.4151000977-.2282104492l5.9493408203-9.4133300781,2.2991943359,3.6831665039c-1.6857910156,1.2344360352-2.7871704102,3.2221679688-2.7871704102,5.4675292969,0,3.7377319336,3.0407714844,6.778503418,6.778503418,6.778503418,3.7387084961,0,6.7794799805-3.0407714844,6.7794799805-6.778503418,0-3.7387084961-3.0407714844-6.7794799805-6.7794799805-6.7794799805ZM12.333524704,34.8166847229c-3.196105957,0-5.796875-2.600769043-5.796875-5.796875,0-3.1970825195,2.600769043-5.7978515625,5.796875-5.7978515625.9919433594,0,1.9261474609.2513427734,2.7434692383.6924438477l-3.1547241211,4.8369750977c-.0977783203.1514892578-.1063842773.3441772461-.0201416016.5023193359.0853271484.158203125.251159668.2569580078.4313964844.2569580078h5.7719726562c-.2505493164,2.966796875-2.7415161133,5.3060302734-5.7719726562,5.3060302734ZM13.239408493,28.5289649963l2.6564941406-4.0733642578c1.2359008789.9671020508,2.0701904297,2.4212036133,2.2096557617,4.0733642578h-4.8661499023ZM19.0871868134,28.5289649963c-.1439208984-1.9953613281-1.1525268555-3.7500610352-2.6547241211-4.8961791992l2.4553222656-3.7648925781,5.2512207031,8.6610717773h-5.0518188477ZM25.0192546844,28.0876197815l-5.2446899414-8.6503295898h10.7126464844l-5.467956543,8.6503295898ZM37.6654949188,34.8166847229c-3.1960449219,0-5.796875-2.600769043-5.796875-5.796875,0-1.8944702148.9173583984-3.5743408203,2.3265380859-4.6329956055l3.0543212891,4.8927612305.8320922852-.51953125-3.055847168-4.895690918c.7927856445-.4077758789,1.6887207031-.6423950195,2.6397705078-.6423950195,3.1970825195,0,5.7978515625,2.600769043,5.7978515625,5.7978515625,0,3.196105957-2.600769043,5.796875-5.7978515625,5.796875Z"/>
</svg>