<?xml version="1.0" encoding="UTF-8"?>
<svg id="BreakoutSpaces" xmlns="http://www.w3.org/2000/svg" viewBox="0 0 50 50">
  <defs>
    <style>
      .cls-1 {
        fill: #5f5f5f;
      }
    </style>
  </defs>
  <path class="cls-1" d="M38.5007610321,20.3934669495c-.1321411133,0-.2841796875.0152587891-.4420776367.0404663086.2149658203-.7893066406.4587402344-1.8843994141.4587402344-2.8306884766,0-1.7837524414-1.6160888672-3.7786865234-3.7786865234-3.7786865234H15.2607707977c-2.1625976562,0-3.7781982422,1.994934082-3.7781982422,3.7786865234,0,.9462280273.2435913086,2.0413818359.4585571289,2.8306884766-.1578369141-.0252075195-.3098144531-.0404663086-.4418945312-.0404663086-1.3946533203,0-2.5297241211,1.1345825195-2.5292358398,2.5458374023l.1965332031,6.1323852539c0,1.8556518555,1.9831542969,3.295715332,3.6892089844,3.295715332h.2241210938l-.4387207031,1.874206543c-.1975097656.8456420898.3294677734,1.6942749023,1.174621582,1.8908081055.120300293.0283203125.2420043945.04296875.3632202148.04296875.2893676758,0,.5744018555-.0811157227.8265991211-.2375488281.3578491211-.2209472656.6076049805-.5689697266.7034301758-.9786376953l.6066894531-2.591796875h17.3686523438l.606628418,2.5908203125c.0958251953.4106445312.3460693359.7586669922.7029418945.9796142578.2531738281.157409668.5377197266.2375488281.8270874023.2375488281.1202392578,0,.2414550781-.013671875.3617553711-.0419921875.4105834961-.0958251953.7586669922-.3461303711.9805908203-.703918457.2219238281-.3568725586.2913208008-.7792358398.1954956055-1.1888427734l-.4379272461-1.8732299805h.223815918c1.7060546875,0,3.6887207031-1.4400634766,3.6887207031-3.2800292969l.1965332031-6.1641845703c0-1.3951416016-1.1350708008-2.5296630859-2.5292358398-2.5297241211ZM15.2607707977,14.825717926h19.4779663086c1.5642700195,0,2.7775268555,1.4928588867,2.7775268555,2.7775268555,0,1.2833862305-.5356445312,2.9912109375-.6824951172,3.4362792969-.3798217773.366394043-.7037963867.9237060547-.8553466797,1.7981567383-.0381469727.2160644531-.0703735352.5005493164-.1075439453.8261108398-.2268066406,1.992980957-.5856323242,4.1193847656-1.9866333008,4.1193847656h-17.7684936523c-1.4005126953,0-1.7598266602-2.1254272461-1.9866333008-4.1179199219-.0371704102-.3265380859-.0698852539-.6110229492-.1075439453-.8275756836-.1517333984-.8741455078-.4755859375-1.4313354492-.8552856445-1.7977905273-.1468505859-.4436645508-.6825561523-2.1498413086-.6825561523-3.4366455078,0-1.2846679688,1.2132568359-2.7775268555,2.7770385742-2.7775268555ZM14.7342815399,34.7304420471c-.03515625.149597168-.1260986328.2756958008-.2561035156.3568115234-.1310424805.0802001953-.2850341797.1055908203-.4340820312.0704345703-.1491088867-.0342407227-.2762451172-.1251831055-.3568725586-.2551879883-.0806884766-.1300048828-.1060791016-.2844848633-.0713500977-.4331054688l.4922485352-2.1019897461h1.1792602539l-.5531005859,2.3630371094ZM36.3127727509,34.9025001526c-.0801391602.1300048828-.2072753906.2209472656-.3578491211.2561645508-.1505126953.0322265625-.3030395508.0087890625-.4330444336-.0714111328-.130065918-.0801391602-.2210083008-.2072143555-.2551879883-.3568115234l-.5531005859-2.3630371094h1.1782836914l.4922485352,2.1019897461c.0342407227.149597168.0098266602.3031005859-.0713500977.4331054688ZM39.832365036,29.0716896057c0,1.1575927734-1.3316040039,2.2946166992-2.6876220703,2.2946166992H12.8557415009c-1.3565063477,0-2.6881103516-1.1370239258-2.6885986328-2.3102416992l-.1965332031-6.1328735352c0-.8427124023.6858520508-1.5285644531,1.5286254883-1.5285644531.5391845703,0,1.2850952148.167175293,1.5358886719,1.6141357422.0352172852.2013549805.0650024414.4663085938.0992431641.7698974609.1994018555,1.7490234375.5699462891,5.0056152344,2.9813842773,5.0056152344h17.7684936523c2.4119262695,0,2.7824707031-3.2570800781,2.9808959961-5.0070800781.0342407227-.3031005859.0645141602-.567565918.0987548828-.7684326172.2512817383-1.4469604492.9971923828-1.6141357422,1.5368652344-1.6141357422.8427734375,0,1.528137207.6858520508,1.528137207,1.5124511719l-.1965332031,6.1646118164Z"/>
</svg>