<?xml version="1.0" encoding="UTF-8"?>
<svg id="CommunityEvents" xmlns="http://www.w3.org/2000/svg" viewBox="0 0 50 50">
  <defs>
    <style>
      .cls-1 {
        fill: #5f5f5f;
      }
    </style>
  </defs>
  <path class="cls-1" d="M33.2272624969,21.1355323792c0-6.6086425781-5.3767700195-11.9849853516-11.9849243164-11.9849853516-6.608215332,0-11.9849853516,5.3763427734-11.9849853516,11.9849853516,0,1.8235473633.399230957,3.5739135742,1.1861572266,5.2041015625.1568603516,1.1943359375.2559204102,4.2978515625-1.0303344727,5.5013427734l-.4184570312.3915405273.4501953125.3549804688c.0211791992.0163574219,1.3035888672.9995727539,3.2026367188.9995727539,1.1217041016,0,2.4589233398-.3434448242,3.876953125-1.4305419922,1.1544799805.4877319336,3.0833129883.9639892578,4.7178344727.9639892578,6.6081542969,0,11.9849243164-5.3768310547,11.9849243164-11.9849853516ZM16.3840618134,31.0040016174l-.2434082031.1991577148c-2.5551147461,2.0991821289-4.7389526367,1.3632202148-5.6422729492.8860473633,1.4555053711-2.0231323242.9350585938-5.7919311523.9100341797-5.9645996094l-.0451660156-.1467285156c-.7436523438-1.5147094727-1.1207885742-3.1439208984-1.1207885742-4.8423461914,0-6.0651245117,4.9342651367-10.9998779297,10.9998779297-10.9998779297,6.0655517578,0,10.9998168945,4.934753418,10.9998168945,10.9998779297,0,6.065612793-4.9342651367,10.9998168945-10.9998168945,10.9998168945-1.5719604492,0-3.5604858398-.5059814453-4.5754394531-.9946899414l-.2828369141-.1366577148Z"/>
  <path class="cls-1" d="M40.5868206024,39.1033668518c-1.2862548828-1.2034912109-1.1871337891-4.3070068359-1.0303344727-5.5009155273.7869262695-1.6306152344,1.1861572266-3.3815307617,1.1861572266-5.2045898438,0-4.1848144531-2.1279907227-7.9982910156-5.6913452148-10.2008666992-.2318725586-.1433105469-.5349121094-.0716552734-.6782226562.1602172852-.1423950195.2313232422-.0712280273.5348510742.1606445312.677734375,3.2708740234,2.0216674805,5.223815918,5.5220336914,5.223815918,9.3629150391,0,1.6989746094-.3771362305,3.3276977539-1.1207885742,4.8419189453l-.0451660156.1472167969c-.0250244141.1721801758-.5454711914,3.94140625.9100341797,5.9645385742-.9061889648.4800415039-3.0880737305,1.2141113281-5.6422729492-.8859863281l-.2434082031-.1991577148-.2828369141.1365966797c-1.0149536133.4887084961-3.0034790039.9947509766-4.575378418.9947509766-3.8625488281,0-7.373046875-1.9702148438-9.3913574219-5.2700195312-.1423950195-.2327880859-.4473266602-.3039550781-.6772460938-.1635131836-.2318725586.1423339844-.3049926758.4453735352-.1635742188.6772460938,2.19921875,3.5950927734,6.024230957,5.741394043,10.2321777344,5.741394043,1.6344604492,0,3.5633544922-.4761962891,4.7177734375-.9639282227,1.4190063477,1.087097168,2.7562255859,1.4305419922,3.876953125,1.4305419922,1.8990478516,0,3.1814575195-.983215332,3.2026367188-.9995727539l.4501953125-.3549804688-.4184570312-.3915405273Z"/>
</svg>