<?xml version="1.0" encoding="UTF-8"?>
<svg id="Conference" xmlns="http://www.w3.org/2000/svg" viewBox="0 0 50 50">
  <defs>
    <style>
      .cls-1 {
        fill: #5f5f5f;
      }
    </style>
  </defs>
  <path class="cls-1" d="M43.7199993134,39.9261207581h-1.5299682617c-.4066772461,0-.6100463867-.2100219727-.6100463867-.6300048828,0-.5100097656.0100097656-1.0200195312,0-1.5300292969-.0100097656-.4899902344-.2099609375-.6999511719-.700012207-.6999511719h-2.1999511719c-.1600341797,0-.3300170898-.0300292969-.3900146484-.0300292969.049987793-.7700195312.1300048828-1.4700317383.1300048828-2.1799926758v-8.4000244141c0-.9799804688,0-1.9199829102.3300170898-2.8899536133.5299682617-1.5600585938.8099975586-3.200012207,1.2599487305-4.7900390625.3900146484-1.3900146484-.5999755859-2.4199829102-1.8199462891-2.3399658203-.3900146484.0199584961-.7800292969,0-1.200012207,0,.0100097656-.9200439453-.1000366211-1.7300415039-.5700073242-2.450012207-.4700317383-.7200317383-1.1400146484-1.1699829102-1.9299926758-1.4400024414,1.1099853516-2.4799804688.8899536133-4.1900024414-.6400146484-5.4799804688-1.3699951172-1.1500244141-3.3200073242-1.2600097656-4.7899780273-.2600097656-.7400512695.5-1.25,1.1699829102-1.5400390625,2.0100097656-.450012207,1.3199462891-.1799926758,2.5299682617.5800170898,3.7199707031-.8599853516.299987793-1.5999755859.7299804688-1.9600219727,1.5-.3399658203.7199707031-.5,1.5399780273-.7699584961,2.4000244141-.4800415039,0-1.0900268555-.0100097656-1.7100219727,0-1.2299804688.0199584961-1.9899902344.9599609375-1.7100219727,2.1399536133.4200439453,1.7600097656.8099975586,3.5300292969,1.3600463867,5.25.2199707031.700012207.2599487305,1.3500366211.2599487305,2.0400390625.0100097656,2.5599975586-.0199584961,5.1199951172.0100097656,7.6799926758.0200195312,1.1499633789-.1799926758,2.3200073242.2600097656,3.4699707031h-5.6767578125c.1587524414-1.9555053711.3078613281-3.8430175781.4667358398-5.7299804688.0800170898-.9199829102.0500488281-.9799804688-.8899536133-1.0900268555-.0400390625,0-.0800170898-.0399780273-.2300415039-.1399536133.2700195312-.8600463867.4900512695-1.7700195312.8500366211-2.6300048828.3699951172-.8900146484.8699951172-1.7300415039,1.3200073242-2.5900268555.2699584961-.5200195312.0599975586-.9199829102-.5400390625-.9199829102-.1699829102,0-.3499755859.0200195312-.5199584961.049987793-.4200439453.0700073242-.8300170898.1500244141-1.2700195312.2299804688.0100097656-.1599731445,0-.2699584961.0200195312-.3800048828.2799682617-1.4299926758.4699707031-2.8699951172.25-4.3099975586-.1400146484-.8799438477-.4000244141-1.7599487305-.6800537109-2.6099853516-.1599731445-.4799804688-.5299682617-.5899658203-.8999633789-.2600097656-.4600219727.4000244141-.9700317383.8400268555-1.1900024414,1.3800048828-.4299926758,1.049987793-.6900024414,2.1700439453-.9799804688,3.2700195312-.1100463867.4400024414-.1300048828.9099731445-.200012207,1.4099731445-1.3699951172-.9899902344-1.6900024414-1.1199951172-2.6500244141-1.0999755859-.8200073242.0200195312-1.0100097656.3300170898-.6699829102,1.0800170898,1.0100097656,2.2199707031,1.7700195312,4.5199584961,2.049987793,6.9599609375.0399780273.2700195312.0700073242.5-.25.6800537109-.1599731445.0899658203-.2600097656.4099731445-.25.6099853516.1199951172,1.6699829102.2800292969,3.3299560547.4199829102,4.9899902344.0300292969.3699951172.0300292969.7399902344.0500488281,1.1500244141h-1.75c-2.4899902344.0199584961-2.1799926758-.3000488281-2.200012207,2.1699829102v.3300170898c.0200195312.2699584961-.0900268555.3599853516-.3599853516.3599853516-.5400390625-.0100097656-1.0800170898,0-1.6199951172,0-.7100219727,0-.8800048828.1699829102-.8800048828.8599853516v2.049987793c0,.9299926758.1199951172,1.0400390625,1.0399780273,1.0400390625h37.1199951172c.5100097656-.0200195312.7200317383-.2200317383.7200317383-.7400512695v-2.4799804688c0-.5200195312-.2100219727-.7299804688-.7200317383-.7299804688ZM28.3999919891,9.776096344c.0200195312-.1699829102.0800170898-.3300170898.1400146484-.5599975586h.0100097656c.9899902344.3900146484,1.950012207.4600219727,2.7600097656-.1199951172.6399536133-.4600219727,1.1499633789-.549987793,1.8999633789-.2800292969.8300170898.3000488281.9600219727.3200073242.9600219727,1.25.0100097656,1.7300415039-1.3599853516,3.0200195312-3.1099853516,2.9300537109-1.6100463867-.0900268555-2.8400268555-1.5700073242-2.6600341797-3.2200317383ZM27.4200115204,14.1261329651c.6400146484-.5700073242,1.3699951172-.8100585938,2.2299804688-.4100341797,1.049987793.4899902344,2.1199951172.4899902344,3.1900024414.0300292969,1.3500366211-.5800170898,2.8599853516.2899780273,3.0300292969,1.75.0299682617.2799682617,0,.5699462891,0,.9099731445l.0100097656.0100097656h-9.1500244141c-.1799926758-.9000244141,0-1.6799926758.6900024414-2.2899780273ZM23.0000286102,18.4460792542c-.1500244141-.6199951172.0799560547-.9199829102.7099609375-.9199829102h14.4700317383c.7600097656,0,.9699707031.2600097656.7799682617,1.0100097656-.3599853516,1.4400024414-.7299804688,2.8699951172-1.0799560547,4.299987793-.0900268555.3400268555-.2200317383.4899902344-.6100463867.4899902344-4.1799926758-.0199584961-8.3699951172-.0199584961-12.549987793,0-.3900146484,0-.5299682617-.1499633789-.6099853516-.4899902344-.3599853516-1.4699707031-.7399902344-2.9299926758-1.1099853516-4.3900146484ZM37.2900066376,24.8661231995v10.9199829102c0,.8099975586-.4600219727,1.2700195312-1.2700195312,1.2700195312h-10.1099853516c-.8099975586,0-1.2700195312-.4600219727-1.2700195312-1.2700195312,0-3.6400146484.0100097656-7.2800292969,0-10.9199829102,0-.3900146484.1400146484-.4700317383.5-.4700317383h5.8699951172c1.9266967773.0001220703,3.8533325195.0099487305,5.7800292969,0,.3599853516-.0100097656.5.0800170898.5.4700317383ZM17.5600261688,25.276096344c.1572875977-.0688476562.3355102539-.1188354492.5789794922-.1965332031-.0490722656.1672363281-.0693359375.2572021484-.1090087891.3365478516-.75,1.3800048828-1.25,2.8399658203-1.5100097656,4.3800048828-.049987793.3499755859-.2199707031.3800048828-.5100097656.3800048828-.3499755859,0-.3299560547-.2300415039-.3299560547-.450012207-.0400390625-.9600219727.0100097656-1.9000244141.3800048828-2.799987793.3099975586-.7300415039.7799682617-1.3099975586,1.5-1.6500244141ZM17.5099773407,31.276096344c-.0599975586.8099975586-.1099853516,1.6000366211-.1699829102,2.3800048828-.0800170898.9600219727-.1900024414,1.9299926758-.25,2.8900146484-.0299682617.3499755859-.1099853516.5100097656-.5.5-.9199829102-.0200195312-1.8399658203,0-2.7600097656,0-.2699584961.0100097656-.4099731445-.0599975586-.4299926758-.3599853516-.1300048828-1.7100219727-.2699584961-3.4100341797-.4099731445-5.1199951172,0-.0800170898.0199584961-.1500244141.0199584961-.2800292969v-.0100097656h4.5ZM14.6900310516,22.9660987854c.1999511719-1.4199829102.3199462891-2.8399658203.8800048828-4.1699829102.1299438477-.3099975586.3299560547-.5900268555.5099487305-.9299926758.9900512695,1.4599609375.4600219727,6.8499755859-.7299804688,7.950012207-.450012207-.9000244141-.8099975586-1.7700195312-.6599731445-2.8500366211ZM11.7099895477,23.1661109924c-.0399780273-.0999755859-.0799560547-.200012207-.1099853516-.3099975586-.0100097656-.0300292969.0100097656-.0599975586.0300292969-.1199951172v-.0100097656c.5299682617.0800170898.9499511719.3800048828,1.2299804688.7899780273.450012207.6700439453.8800048828,1.3600463867,1.2100219727,2.0900268555.4499511719,1,.7899780273,2.0399780273.549987793,3.1799926758-.0900268555.4299926758-.0100097656.8800048828-.0100097656,1.299987793-.0800170898.0400390625-.1000366211.0700073242-.1300048828.0700073242-.9600219727.0800170898-.9700317383.0800170898-1.0999755859-.8599853516-.2900390625-2.1199951172-.8200073242-4.1699829102-1.6700439453-6.1300048828ZM10.680021286,38.1460914612h29.1099853516c.4466552734,0,.6699829102.2200317383.6699829102.6600341797,0,.7399902344-.3766479492,1.1099853516-1.1300048828,1.1099853516h-14.4099731445c-4.950012207,0-9.8900146484-.0100097656-14.8400268555.0100097656-.4799804688,0-.6300048828-.1000366211-.6199951172-.6000366211.0400390625-1.1799926758.0100097656-1.1799926758,1.2200317383-1.1799926758ZM42.1600017548,42.7861061096H7.3200359344c-.4666748047,0-.700012207-.2299804688-.700012207-.6900024414,0-.7266845703.3699951172-1.0900268555,1.1099853516-1.0900268555h34.9799804688c.4199829102.0067138672.6300048828.2133789062.6300048828.6200561523,0,.7733154297-.3933105469,1.1599731445-1.1799926758,1.1599731445Z"/>
  <path class="cls-1" d="M34.6900310516,32.576084137c-.5900268555.5200195312-1.1500244141,1.0900268555-1.6800537109,1.6799926758-.1099853516.1100463867-.0999755859.4000244141-.0399780273.5700073242.0399780273.1300048828.25.2100219727.3800048828.3099975586v-.0099487305c.1599731445-.0700073242.299987793-.0900268555.3800048828-.1700439453.5700073242-.549987793,1.1500244141-1.0899658203,1.6699829102-1.6900024414.1099853516-.1199951172.0700073242-.5299682617-.049987793-.6499633789-.1300048828-.1199951172-.5299682617-.1500244141-.6599731445-.0400390625Z"/>
</svg>