<?xml version="1.0" encoding="UTF-8"?>
<svg id="Courtyard" xmlns="http://www.w3.org/2000/svg" viewBox="0 0 50 50">
  <defs>
    <style>
      .cls-1 {
        fill: #5f5f5f;
      }
    </style>
  </defs>
  <path class="cls-1" d="M40.0301189423,39.0566749573h-6.6217651367c3.2695922852-1.0009155273,4.9292602539-2.7626342773,4.9292602539-5.2827148438,0-3.2271728516-4.4377441406-5.6620483398-10.8516845703-6.1640625,2.1871948242-.7327270508,3.9594116211-1.8193359375,5.1362915039-3.1692504883,1.2745361328-1.4610595703,1.7267456055-3.102355957,1.2725830078-4.6210327148-.4501953125-1.5059814453-1.8331298828-2.6062011719-3.8948364258-3.0983886719-.4573364258-.1091308594-.9406738281-.1818847656-1.4403076172-.2259521484,1.2892456055-.7857055664,2.1112670898-1.9602661133,2.1112670898-3.2719726562,0-2.3600463867-2.6545410156-4.2801513672-5.9180297852-4.2801513672-3.2630004883,0-5.9174804688,1.9201049805-5.9174804688,4.2801513672,0,1.8533935547,1.6407470703,3.4309692383,3.924621582,4.024597168-3.4897460938,1.1094970703-5.9647827148,2.7482299805-6.9722900391,4.6495361328-.5786743164,1.0914306641-.6831665039,2.2448120117-.3120117188,3.4212036133.3666992188,1.2284545898,1.4745483398,2.1571044922,3.1467895508,2.6912841797-4.7329711914.852355957-7.280456543,2.7817993164-7.280456543,5.6478271484,0,2.5098266602,1.9112548828,4.3552246094,5.422668457,5.3989257812h-6.7948608398c-.5523071289,0-1.0000610352.447265625-1.0000610352,1.0000610352s.4477539062,1.0001220703,1.0000610352,1.0001220703h30.0602416992c.5527954102,0,1.0001220703-.4473266602,1.0001220703-1.0001220703s-.4473266602-1.0000610352-1.0001220703-1.0000610352ZM19.835477829,13.2233009338c0-1.8087158203,2.2057495117-3.2800292969,4.9174194336-3.2800292969s4.9179077148,1.4713134766,4.9179077148,3.2800292969c0,1.8082885742-2.206237793,3.2796020508-4.9179077148,3.2796020508s-4.9174194336-1.4713134766-4.9174194336-3.2796020508ZM16.4318523407,25.0251197815c-.2900390625-.9185180664-.2094726562-1.8131103516.2393188477-2.659362793.9209594727-1.7369995117,3.3283691406-3.2620239258,6.7788696289-4.2933959961,1.3927001953-.416015625,2.7780761719-.626953125,4.0594482422-.626953125.8008422852,0,1.5616455078.0825195312,2.2579956055.2485351562,1.700378418.4057617188,2.8254394531,1.2623291016,3.1682739258,2.4118041992.3525390625,1.1783447266-.0263671875,2.4846191406-1.0665283203,3.6776123047-1.1328735352,1.2984619141-2.9816894531,2.3795776367-5.2064819336,3.0437011719-2.2838745117.6836547852-4.7313842773.8623657227-6.7130126953.4932250977-1.9063720703-.3555297852-3.1877441406-1.1895751953-3.5178833008-2.2951660156ZM12.342130661,33.657749176c0-4.6459350586,8.8518676758-5.1479492188,12.6578979492-5.1479492188,6.9180297852,0,12.3374633789,2.3127441406,12.3374633789,5.2641601562,0,4.3519287109-6.7095336914,5.2651367188-12.3374633789,5.2651367188-7.9260253906,0-12.6578979492-2.0119018555-12.6578979492-5.3813476562Z"/>
</svg>