<?xml version="1.0" encoding="UTF-8"?>
<svg id="Coworking" xmlns="http://www.w3.org/2000/svg" viewBox="0 0 50 50">
  <defs>
    <style>
      .cls-1 {
        fill: #5f5f5f;
      }
    </style>
  </defs>
  <path class="cls-1" d="M22.4570598602,17.6383399963h-8.0477294922c-.2454833984,1.8848266602-.4909667969,3.7608642578-.7364501953,5.6632080078h8.0916137695c.2279052734-1.8848266602.455871582-3.7608642578.692565918-5.6632080078ZM20.8782024384,22.3015480042h-6.0676269531c.1356811523-1.0463256836.2713623047-2.0867919922.4069824219-3.1271972656l.0698852539-.5360107422h6.0380859375c-.1512451172,1.2260131836-.2995605469,2.4439086914-.4473266602,3.6632080078Z"/>
  <path class="cls-1" d="M35.8368816376,23.1498756409c-.2406005859-1.8087158203-.4729003906-3.5842895508-.7052612305-5.3598632812h-7.5585327148c.2156982422,1.8004760742.4314575195,3.5759887695.655456543,5.3598632812h7.6083374023ZM34.2539958954,18.7900123596c.1459350586,1.1150512695.2924194336,2.2322998047.4415283203,3.3598632812h-5.5841674805c-.1389770508-1.118347168-.2752685547-2.235534668-.4108886719-3.3598632812h5.553527832Z"/>
  <path class="cls-1" d="M34.2328166962,12.5446510315c1.9085083008,0,3.4573364258-1.5388183594,3.4573364258-3.4473266602h-.0100097656c0-1.928527832-1.5388183594-3.5172729492-3.4373168945-3.5172729492-1.9484863281,0-3.5272827148,1.5587768555-3.5272827148,3.5072631836,0,1.8885498047,1.5987548828,3.4573364258,3.5172729492,3.4573364258ZM34.2428264618,6.5800514221c1.3439331055,0,2.4373168945,1.1292724609,2.4373168945,2.5172729492l.0020141602.1986083984c-.1018676758,1.2568969727-1.1614990234,2.2487182617-2.4493408203,2.2487182617-1.3645019531,0-2.5172729492-1.1253051758-2.5172729492-2.4573364258,0-1.3825073242,1.1337280273-2.5072631836,2.5272827148-2.5072631836Z"/>
  <path class="cls-1" d="M15.5387248993,12.5547218323c.0061645508,0,.0123901367-.0000610352.0185546875-.0000610352,1.8985595703-.0100097656,3.4273681641-1.5587768555,3.4273681641-3.4772949219h.0100097656c-.0100097656-1.928527832-1.5588378906-3.4973144531-3.4673461914-3.4973144531-1.9484863281,0-3.4573364258,1.5587768555-3.4473266602,3.5472412109.0099487305,1.90234375,1.5586547852,3.4274291992,3.4587402344,3.4274291992ZM13.8076457977,7.2832984924c.451171875-.4534912109,1.0619506836-.7032470703,1.7196655273-.7032470703,1.2826538086,0,2.3438720703,1.0083007812,2.4573364258,2.2883911133v.2089233398c0,1.3589477539-1.0912475586,2.4702758789-2.4459228516,2.477355957-1.3487548828,0-2.4517211914-1.0913085938-2.4587402344-2.432434082-.0036010742-.7106933594.2548217773-1.3637695312.7276611328-1.8389892578Z"/>
  <path class="cls-1" d="M17.0918865204,21.0134620667h.9643554688c.3418579102,0,.6837768555.0087890625,1.0256347656,0,.3594360352-.0087280273.5435791016-.2015991211.5435791016-.5260009766,0-.315612793-.2016601562-.5172119141-.5523071289-.5172119141h-1.9900512695c-.3418579102,0-.5435180664.2103881836-.5435180664.5260009766s.2016601562.5084838867.5523071289.5172119141Z"/>
  <path class="cls-1" d="M30.7259197235,20.9843482971h.9375610352v.0083007812h.8795166016c.3899536133-.0083007812.5724487305-.1825561523.5724487305-.5061035156,0-.3153076172-.1990966797-.4895629883-.555847168-.4895629883h-1.8170776367c-.3401489258,0-.5393066406.1742553711-.5476074219.4646606445-.0166015625.2987060547.1991577148.5144042969.5310058594.5227050781Z"/>
  <path class="cls-1" d="M43.6355266571,23.7359962463h-3.0476074219c-.1398925781,0-.2797851562-.0199584961-.4396972656-.0199584961v-7.6240844727c-.0100097656-1.8086547852-1.2290039062-3.0876464844-3.0176391602-3.1076049805-.879699707-.0135498047-1.7611083984-.0189208984-2.6439208984-.0189208984-1.0726318359,0-2.147277832.0079345703-3.2215576172.0189208984-1.4188842773.0199584961-2.5380249023.8792724609-2.8977661133,2.188293457-.0798950195.259765625-.0999145508.5296020508-.1598510742.8393554688h-2.1383666992c-.5895385742.0100097656-.7893676758.2198486328-.7194213867.7893676758.2098388672,1.7086791992.4396972656,3.4073486328.6594848633,5.116027832.0699462891.5895385742.1398925781,1.1790771484.2198486328,1.7886352539h-2.6779174805c0-.119934082-.0100097656-.2098388672,0-.2997436523.1898193359-1.4688720703.3897094727-2.9477539062.5795288086-4.4166259766.0899658203-.7094116211.1998291016-1.4188842773.2697753906-2.1283569336.049987793-.569519043-.139831543-.7693481445-.7094116211-.7693481445h-2.1683349609c-.1998291016-1.978515625-1.3589477539-3.0376586914-3.2874145508-3.0376586914h-5.475769043c-1.8985595703,0-3.1575927734,1.2590332031-3.1575927734,3.1675415039v7.5841064453h-3.2075195312c-.5295410156,0-.7393798828.2098388672-.7393798828.739440918v3.0476074219c0,.5096435547.1998291016.6994628906.7194213867.6994628906h1.3989257812v15.1682739258c0,.1398925781-.0100097656.2897338867,0,.4296264648.0299682617.3197631836.1998291016.4996337891.5195922852.5296020508h32.9444580078c.8293457031,0,.9492797852-.1198730469.9492797852-.9492797852v-15.1981811523h1.3688964844c.5995483398,0,.7894287109-.1898803711.7894287109-.7993774414v-3.0076904297c0-.5495605469-.1599121094-.7294311523-.7094726562-.7294311523ZM43.3449993134,27.2724952698h-2.1583251953v16.1474609375H8.7733440399v-16.1275024414h-2.118347168v-2.4865112305h3.9468994141v-8.5841064453c0-1.3572387695.8065795898-2.1675415039,2.1575927734-2.1675415039h5.475769043c1.4166870117,0,2.1451416016.6793823242,2.2924804688,2.1381225586l.0908813477.8995361328h2.7515258789c-.040222168.3511962891-.0881958008.7023925781-.1359863281,1.0535888672-.0326538086.239440918-.0651855469.4789428711-.0952758789.7159423828-.0948486328.7338256836-.192199707,1.4701538086-.2895507812,2.2065429688-.0974731445.737487793-.1949462891,1.4750366211-.2921142578,2.2278442383-.0115356445.1035766602-.0118408203.2070922852-.0079956055.325012207l.0018920898.085144043v1h4.8176269531l-.1481933594-1.130065918c-.0794067383-.6053466797-.1488647461-1.1908569336-.219543457-1.7861328125l-.2313232422-1.7769165039c-.1309204102-1-.26171875-1.9989624023-.3863525391-3.0009155273h2.6491699219l.1567382812-.8099975586c.0238037109-.1226806641.0421142578-.2397460938.0596313477-.352722168.0236206055-.1524658203.0440063477-.2841796875.0827636719-.4116821289.2426147461-.8829345703.9888916016-1.4398803711,1.9436645508-1.4533081055,1.0709228516-.010925293,2.1421508789-.0188598633,3.2113647461-.0188598633.8776855469,0,1.7539672852.0053100586,2.6327514648.0188598633,1.2254638672.013671875,2.0217895508.8431396484,2.0288085938,2.1076660156v8.6240844727h1c.0583496094,0,.1129150391.0044555664.1656494141.0081176758.0933837891.0064086914.1837158203.0118408203.2740478516.0118408203h2.7570800781v2.5364990234Z"/>
  <path class="cls-1" d="M38.3254070282,29.5802345276l-26.5805664062-.0107421875c-1.09765625,0-1.4497070312.35546875-1.4497070312,1.4609375v9.439453125c0,1.0283203125.3876953125,1.41015625,1.4296875,1.41015625h26.580078125c1.0419921875,0,1.4296875-.3818359375,1.4296875-1.41015625v-9.4697265625c0-1.048828125-.369140625-1.419921875-1.4091796875-1.419921875ZM38.7345867157,31.0001564026v9.8798828125H11.2975749969v-.3173828125c-.0008544922-.0308837891-.0024414062-.0554199219-.0024414062-.0927734375v-9.439453125c0-.0403442383.0015869141-.0671386719.0024414062-.1008300781v-.3601074219h27.4370117188v.4306640625Z"/>
</svg>