<?xml version="1.0" encoding="UTF-8"?>
<svg id="EVCharger" xmlns="http://www.w3.org/2000/svg" viewBox="0 0 50 50">
  <defs>
    <style>
      .cls-1 {
        fill: #5f5f5f;
      }
    </style>
  </defs>
  <path class="cls-1" d="M40.5199260712,20.6181373596h-2.6799926758v-1.4420776367c0-1.8213500977-1.4818115234-3.3031616211-3.3031616211-3.3031616211h-3.6878051758c-.2777099609,0-.5024414062.2247314453-.5024414062.5024414062s.2247314453.5024414062.5024414062.5024414062h3.6878051758c1.2669067383,0,2.2982788086,1.0308837891,2.2982788086,2.2982788086v9.8063964844c0,1.2668457031-1.0313720703,2.2982177734-2.2982788086,2.2982177734h-3.6878051758c-.2777099609,0-.5024414062.2247314453-.5024414062.5024414062,0,.2777709961.2247314453.5024414062.5024414062.5024414062h3.6878051758c1.8213500977,0,3.3031616211-1.4817504883,3.3031616211-3.3031005859v-.9950561523h2.6799926758c.2777099609,0,.5024414062-.2247314453.5024414062-.5024414062v-6.364440918c0-.2777099609-.2247314453-.5023803711-.5024414062-.5023803711ZM40.0174846649,26.9825172424h-2.1775512695v-5.3595581055h2.1775512695v5.3595581055Z"/>
  <path class="cls-1" d="M28.6282024384,22.8501319885h-8.0081176758l5.0396118164-7.5944824219c.3071289062-.4622192383.1805419922-1.0858154297-.2816162109-1.3925170898-.4622192383-.3076171875-1.0863647461-.1815185547-1.3925170898.2816772461l-1.1467895508,1.7280883789h-10.5579833984c-1.8213500977,0-3.3031616211,1.4818115234-3.3031616211,3.3031616211v9.8063964844c0,1.8213500977,1.4818115234,3.3031005859,3.3031616211,3.3031005859h9.5466918945l-1.6318359375,2.4592285156c-.3071289062.4622192383-.1810302734,1.0853271484.2816772461,1.3925170898.170715332.1138305664.3635864258.1677856445.5544433594.1677856445.3253173828,0,.6447143555-.1580200195.8380737305-.4494628906l7.5954589844-11.4451904297c.205078125-.3081054688.2236938477-.7045898438.048034668-1.0303955078-.174621582-.3267822266-.5151977539-.5299072266-.8851318359-.5299072266ZM22.4942913055,31.2806739807h-10.2135009766c-1.2673950195,0-2.2982788086-1.0313720703-2.2982788086-2.2982177734v-9.8063964844c0-1.2673950195,1.0308837891-2.2982788086,2.2982788086-2.2982788086h9.8911132812l-4.26171875,6.4218139648c-.2051391602.3081054688-.2232666016.7045898438-.0485839844,1.0303955078.1751708984.3267822266.5151977539.5299072266.8856201172.5299072266h8.0076293945l-4.260559082,6.4207763672Z"/>
</svg>