<?xml version="1.0" encoding="UTF-8"?>
<svg id="FreeWifi" xmlns="http://www.w3.org/2000/svg" viewBox="0 0 50 50">
  <defs>
    <style>
      .cls-1 {
        fill: #5f5f5f;
      }
    </style>
  </defs>
  <path class="cls-1" d="M40.7837810516,18.9145240784c-4.0964355469-2.5792236328-8.332824707-5.246887207-15.7838134766-5.246887207-7.4509277344,0-11.6873168945,2.6676635742-15.7837524414,5.246887207-.2459106445.1553344727-.3200073242.4805297852-.1646728516.7269897461.1553955078.2474365234.4805908203.3189697266.7265014648.1651611328,3.9698486328-2.5004882812,8.0745239258-5.0853271484,15.2219848633-5.0853271484,7.1473999023,0,11.2520751953,2.5848388672,15.2219238281,5.0853271484.0874633789.0545043945.1842041016.0807495117.2809448242.0807495117.1749267578,0,.345703125-.0869750977.4455566406-.2459106445.1553344727-.2464599609.081237793-.5716552734-.1646728516-.7269897461Z"/>
  <path class="cls-1" d="M36.1491985321,24.1767921448c-2.8904418945-1.8203125-5.8786621094-3.7028198242-11.149230957-3.7028198242-5.2705078125,0-8.2587280273,1.8825073242-11.1491699219,3.7028198242-.2459106445.1548461914-.3200073242.4800415039-.1646118164.7265014648.1553955078.2469482422.4815673828.3200073242.7264404297.1646118164,2.762878418-1.7405395508,5.6204223633-3.5402832031,10.5873413086-3.5402832031,4.9669799805,0,7.8245239258,1.7997436523,10.5874023438,3.5402832031.0874633789.0550537109.1841430664.0812988281.2808837891.0812988281.1749267578,0,.3457641602-.0869750977.4455566406-.2459106445.1553955078-.2464599609.0812988281-.5716552734-.1646118164-.7265014648Z"/>
  <path class="cls-1" d="M31.1523723602,29.4174537659c-1.5918579102-1.0021972656-3.2372436523-2.0374145508-6.15234375-2.0374145508-2.9151611328,0-4.560546875,1.0352172852-6.1524047852,2.0374145508-.2459106445.1543579102-.3200073242.4795532227-.1646118164.7265014648.1553344727.2459106445.4815673828.3220825195.7264404297.1646118164,1.7997436523-1.1318969727,3.1610717773-1.8748168945,5.5905761719-1.8748168945,2.4294433594,0,3.7907714844.7429199219,5.5905151367,1.8748168945.0874633789.0556030273.1842041016.0812988281.2808837891.0812988281.174987793,0,.3457641602-.0874633789.4455566406-.2459106445.1553955078-.2469482422.0812988281-.5721435547-.1646118164-.7265014648Z"/>
  <path class="cls-1" d="M25.0000286102,32.8780250549c-1.0177001953,0-1.6042480469.368347168-2.1218261719.694519043-.1368408203.0854492188-.2263793945.2294921875-.2428588867.3910522461-.0174560547.1605224609.0411987305.3200073242.1564331055.4321899414l1.8408813477,1.7873535156c.0443115234.04296875.0962524414.0731201172.1501464844.0977783203.005065918.0023803711.0072631836.0080566406.0124511719.0102539062.0015869141.0006713867.0032958984.0003662109.0049438477.0009765625.0634765625.0260620117.1310424805.040222168.1998291016.040222168.0687255859,0,.1362915039-.0141601562.1997680664-.040222168.0016479492-.0006103516.0033569336-.0003051758.0049438477-.0009765625.0051879883-.0021972656.0073852539-.0078735352.0124511719-.0102539062.053894043-.0246582031.1058349609-.0548095703.1501464844-.0977783203l1.8408813477-1.7873535156c.115234375-.1121826172.1738891602-.2716674805.1564331055-.4321899414-.0164794922-.1615600586-.1060180664-.3056030273-.2428588867-.3910522461-.517578125-.326171875-1.1041259766-.694519043-2.1217651367-.694519043Z"/>
</svg>