<?xml version="1.0" encoding="UTF-8"?>
<svg id="KitchenAreas" xmlns="http://www.w3.org/2000/svg" viewBox="0 0 50 50">
  <defs>
    <style>
      .cls-1 {
        fill: #5f5f5f;
      }
    </style>
  </defs>
  <path class="cls-1" d="M23.1294841766,14.9040260315c.2678833008.3453369141.2905883789.8258666992.0567016602,1.1949462891l-.8767089844,1.3848876953c-.1494750977.2357788086-.0794067383.5480957031.1564331055.6970825195.0838623047.0532836914.1776123047.0784912109.2698364258.0784912109.1672973633,0,.3310546875-.0828857422.4272460938-.2348632812l.8767700195-1.3848876953c.4602661133-.7272338867.4158935547-1.6735229492-.1110229492-2.3543701172l-1.5787963867-2.0401000977c-.2822265625-.364074707-.2896118164-.8791503906-.0177612305-1.2516479492l.9714355469-1.3340454102c.1643066406-.2255249023.1145019531-.5417480469-.1110229492-.7060546875-.2254638672-.1643066406-.5411987305-.114440918-.7059936523.1110229492l-.9714355469,1.3340454102c-.5343017578.7336425781-.5200195312,1.7470703125.0355224609,2.4653930664l1.5787963867,2.0401000977Z"/>
  <path class="cls-1" d="M16.9169597626,14.9040260315c.2678833008.3453369141.2905883789.8258666992.0567626953,1.1949462891l-.8767089844,1.3848876953c-.1495361328.2357788086-.0794677734.5480957031.1563720703.6970825195.0838623047.0532836914.1776123047.0784912109.2698974609.0784912109.1672363281,0,.3310546875-.0828857422.4272460938-.2348632812l.8767089844-1.3848876953c.4603271484-.7272338867.4158935547-1.6735229492-.1110229492-2.3543701172l-1.5787963867-2.0401000977c-.2821655273-.364074707-.2896118164-.8791503906-.0182495117-1.2516479492l.9719848633-1.3340454102c.1642456055-.2255249023.114440918-.5417480469-.1110229492-.7060546875s-.5412597656-.114440918-.7060546875.1110229492l-.9719238281,1.3340454102c-.5338134766.7336425781-.5189819336,1.7475585938.0360107422,2.4653930664l1.5787963867,2.0401000977Z"/>
  <path class="cls-1" d="M29.3350505829,14.9040260315c.2674560547.3453369141.2901000977.8258666992.0562744141,1.1949462891l-.8771972656,1.3848876953c-.1490478516.2357788086-.0789794922.5476074219.1568603516.6970825195.0838623047.0532836914.1776123047.0784912109.2703857422.0784912109.1667480469,0,.3305664062-.0828857422.4272460938-.2348632812l.8771972656-1.3848876953c.4598388672-.7272338867.4154052734-1.6735229492-.1115112305-2.3543701172l-1.5787353516-2.0401000977c-.2822265625-.364074707-.2891235352-.8791503906-.0177612305-1.2516479492l.9719238281-1.3340454102c.1638183594-.2255249023.114440918-.5417480469-.1115112305-.7060546875-.2249755859-.163269043-.5417480469-.1149291992-.7055053711.1110229492l-.9719238281,1.3340454102c-.5348510742.7336425781-.5200195312,1.7470703125.0355224609,2.4653930664l1.5787353516,2.0401000977Z"/>
  <path class="cls-1" d="M36.0003948212,24.574924469l.4855957031-2.2994995117c.0483398438-.2283935547-.0089111328-.4627685547-.1559448242-.6438598633-.1470336914-.1810302734-.3650512695-.2846679688-.5979614258-.2846679688H9.7409343719c-.2338867188,0-.451965332.1041259766-.5989990234.2857055664-.1469726562.1810302734-.2032470703.4158935547-.1549072266.6437988281l3.1827392578,15.0729370117c.4637451172,2.1984863281,2.4318237305,3.7940063477,4.6796264648,3.7940063477h11.774230957c2.2478027344,0,4.2153320312-1.5955200195,4.6791381836-3.7940063477l.321472168-1.5225219727h1.762512207c3.1112060547,0,5.6431274414-2.5319824219,5.6431274414-5.6431884766,0-2.9045410156-2.2060546875-5.3016357422-5.0294799805-5.6087036133ZM32.3140544891,37.140171051c-.3660888672,1.7346801758-1.9182128906,2.9927368164-3.6904296875,2.9927368164h-11.774230957c-1.7727050781,0-3.3253173828-1.2580566406-3.6909179688-2.9927368164l-3.1215209961-14.7828369141h25.3991088867l-3.1220092773,14.7828369141ZM35.3867473602,34.8163795471h-1.5491333008l1.9482421875-9.2256469727c2.3654174805.2061767578,4.2336425781,2.1749267578,4.2336425781,4.5928955078,0,2.5546875-2.0780639648,4.6327514648-4.6327514648,4.6327514648Z"/>
</svg>