<?xml version="1.0" encoding="UTF-8"?>
<svg id="MeetingRoom" xmlns="http://www.w3.org/2000/svg" viewBox="0 0 50 50">
  <defs>
    <style>
      .cls-1 {
        fill: #5f5f5f;
      }
    </style>
  </defs>
  <path class="cls-1" d="M9.5858440399,25.8030128479h4.3800048828c.3099975586,0,.5-.1499633789.5-.4400024414.0100097656-.2699584961-.1699829102-.4199829102-.450012207-.4400024414-.1300048828-.0099487305-.2600097656-.0099487305-.3899536133-.0099487305h-3.6100463867V7.0130348206h29.9700317383v17.9000244141h-2.5599975586c-.3099975586,0-.6000366211.049987793-.6000366211.4499511719,0,.4000244141.2800292969.450012207.6000366211.450012207h2.7199707031c.6700439453,0,.7600097656-.0999755859.7600097656-.7799682617V6.8830299377c0-.7199707031-.0999755859-.8200073242-.8099975586-.8200073242H9.8858318329c-.7199707031,0-.8200073242.1000366211-.8200073242.799987793v18.4299926758c.0200195312.3300170898.1800537109.5100097656.5200195312.5100097656Z"/>
  <path class="cls-1" d="M28.9958782196,26.0330543518c-.3900146484-.7800292969-1.0100097656-1.1500244141-1.8600463867-1.1500244141h-2.2099609375l.0199584961-.0200195312c-.6399536133,0-1.2899780273.0500488281-1.9299926758,0-.8699951172-.0599975586-1.3999633789.3300170898-1.7899780273,1.0700073242-3,5.700012207-6.0100097656,11.3900146484-9.0200195312,17.0800170898-.0700073242.1199951172-.1799926758.2399902344-.1699829102.3499755859.0200195312.1900024414.0700073242.4400024414.200012207.5200195312s.3800048828-.0100097656.549987793-.0900268555c.0900268555-.049987793.1400146484-.2099609375.200012207-.3299560547,1.0999755859-2.0700073242,2.1900024414-4.1400146484,3.2899780273-6.2200317383,1.9100341797-3.5999755859,3.8200073242-7.2099609375,5.7100219727-10.8200073242.2399902344-.4699707031.5299682617-.6599731445,1.0700073242-.6399536133,1.3200073242.0299682617,2.6499633789.0199584961,3.9799804688,0,.5800170898-.0100097656.9400024414.2299804688,1.2100219727.75,2.8599853516,5.6199951172,5.7299804688,11.2299804688,8.5999755859,16.8499755859.0700073242.1500244141.1300048828.3400268555.2600097656.4299926758.1199951172.1000366211.3499755859.1600341797.4799804688.1000366211.1199951172-.0500488281.2200317383-.2600097656.25-.4200439453.0200195312-.1199951172-.0800170898-.2699584961-.1400146484-.3999633789-2.8999633789-5.6799926758-5.799987793-11.3699951172-8.6999511719-17.0599975586Z"/>
  <path class="cls-1" d="M11.5758342743,41.7430152893h-.9499511719c-1.4600219727-.0399780273-2.1099853516-.5-2.5300292969-1.8999633789-.4199829102-1.4000244141-.7799682617-2.8000488281-1.1499633789-4.2100219727-.0500488281-.1799926758-.0300292969-.4099731445.0399780273-.5800170898.4299926758-1.1399536133,1.3099975586-1.8599853516,2.3499755859-2.4799804688l.0200195312.0200195312c.0700073242.1799926758.1300048828.3099975586.1799926758.4400024414.4299926758,1.2399902344.8400268555,2.4799804688,1.2899780273,3.7099609375.1300048828.3800048828.3200073242.75.5500488281,1.0800170898.6299438477.9099731445,1.4099731445,1.1199951172,2.4399414062.7199707031.3000488281-.1199951172.4800415039-.299987793.3700561523-.6299438477-.1100463867-.3300170898-.3700561523-.3200073242-.6500244141-.2400512695-.8699951172.25-1.1300048828.1600341797-1.5800170898-.6199951172-.1199951172-.200012207-.2099609375-.4199829102-.2899780273-.6399536133-.4799804688-1.3700561523-.950012207-2.75-1.4299926758-4.1200561523-.2100219727-.6099853516-.549987793-.7599487305-1.1600341797-.5399780273-.0799560547.0300292969-.1499633789.049987793-.2199707031.0900268555-1.0899658203.5899658203-1.9699707031,1.3999633789-2.549987793,2.5-.299987793.5799560547-.3800048828,1.1799926758-.1600341797,1.8200073242.200012207.5799560547.3300170898,1.1899414062.5,1.7799682617.2700195312.950012207.5200195312,1.9199829102.8600463867,2.8499755859.3299560547.8900146484,1,1.5,1.9399414062,1.6800537109.7100219727.1399536133,1.4600219727.1399536133,2.1900024414.1699829102.2900390625.0100097656.5100097656-.1500244141.4900512695-.4799804688-.0200195312-.3300170898-.25-.4200439453-.5500488281-.4200439453Z"/>
  <path class="cls-1" d="M22.4458293915,16.2730445862c.0400390625-.6900024414-.0599975586-.8099975586-.7599487305-.8099975586h-2.7400512695v-2.5400390625c0-1.1099853516-.1799926758-1.25-1.2899780273-.9899902344-2.0999755859.4899902344-3.3900146484,2.4299926758-3.0800170898,4.6400146484.2800292969,2.0299682617,2.0500488281,3.4699707031,4.1600341797,3.4000244141,1.8900146484-.0700073242,3.5799560547-1.75,3.7099609375-3.700012207ZM18.5658245087,19.0730323792c-1.6599731445.049987793-3.0799560547-1.299987793-3.1399536133-2.9799804688-.049987793-1.6600341797,1.1799926758-3.2300415039,2.6199951172-3.2600097656v2.8200073242c0,.6199951172.0899658203.7099609375.700012207.7099609375h2.7099609375c.049987793,1.3300170898-1.3900146484,2.6700439453-2.8900146484,2.7100219727Z"/>
  <path class="cls-1" d="M43.935880661,34.7930030823c-.4700317383-1.6499633789-1.6100463867-2.6999511719-3.1300048828-3.3599853516-.5100097656-.2299804688-.8400268555-.0100097656-1.0300292969.5300292969-.5,1.4400024414-.9899902344,2.8999633789-1.5,4.3399658203-.3800048828,1.0900268555-.7899780273,1.2900390625-1.9099731445,1.0599975586-.1600341797-.0399780273-.4400024414.1100463867-.5300292969.25-.1400146484.2200317383-.0200195312.450012207.2299804688.5800170898.8800048828.4700317383,1.8800048828.2700195312,2.4600219727-.5299682617.2600097656-.3600463867.4799804688-.7800292969.6500244141-1.200012207.299987793-.7700195312.5399780273-1.5599975586.8099975586-2.3400268555.200012207-.5899658203.4099731445-1.1799926758.6400146484-1.8300170898v.0100097656c1.0099487305.5700073242,1.7899780273,1.2600097656,2.2899780273,2.2400512695.1699829102.3499755859.1799926758.6999511719.0700073242,1.0699462891-.200012207.6600341797-.3699951172,1.3300170898-.5599975586,2-.2300415039.8099975586-.4400024414,1.6199951172-.7100219727,2.4100341797-.299987793.8699951172-.950012207,1.3399658203-1.8599853516,1.4099731445-.4899902344.0400390625-.9899902344.0300292969-1.4899902344.0400390625-.2800292969,0-.5.0999755859-.5.4199829102-.0100097656.3099975586.1799926758.4600219727.4699707031.4600219727.5200195312.0099487305,1.049987793.0299682617,1.5700073242-.0200195312,1.2700195312-.1300048828,2.1900024414-.7600097656,2.6600341797-1.9700317383.1099853516-.2799682617.2199707031-.5599975586.299987793-.8499755859.3599853516-1.299987793.7199707031-2.5999755859,1.049987793-3.9099731445.0700073242-.2600097656.0899658203-.5600585938.0200195312-.8100585938Z"/>
  <path class="cls-1" d="M13.8058757782,27.4430274963h.0099487305c.3300170898.950012207.6200561523,1.8400268555.950012207,2.7200317383.1900024414.5299682617.4000244141,1.0599975586.6799926758,1.5399780273.450012207.7799682617,1.1000366211.9600219727,1.9200439453.6199951172.2699584961-.1199951172.4499511719-.299987793.3299560547-.6099853516-.1099853516-.299987793-.3499755859-.3400268555-.6499633789-.2399902344-.5200195312.1799926758-.6199951172.1399536133-.8900146484-.3300170898-.1500244141-.2600097656-.2799682617-.5399780273-.3800048828-.8200073242-.3800048828-1.0399780273-.7399902344-2.0999755859-1.0999755859-3.1500244141-.2399902344-.6999511719-.5900268555-.8499755859-1.2600097656-.5199584961-.7399902344.3599853516-1.3300170898.8999633789-1.8099975586,1.549987793-.5200195312.6900024414-.75,1.4299926758-.4000244141,2.2799682617.0700073242.1700439453.1099853516.3500366211.1500244141.5300292969.2399902344.9400024414.450012207,1.8900146484.7099609375,2.8200073242.1900024414.700012207.5900268555,1.2600097656,1.2900390625,1.549987793.700012207.2800292969,1.4299926758.3099975586,2.1699829102.25.2700195312-.0200195312.4600219727-.1799926758.450012207-.4600219727-.0100097656-.2899780273-.200012207-.4400024414-.5-.4400024414h-.8300170898c-1.0199584961-.0199584961-1.4799804688-.3699951172-1.7799682617-1.3399658203-.0400390625-.1400146484-.0700073242-.2800292969-.1100463867-.4199829102-.25-1.0200195312-.5299682617-2.0300292969-.75-3.0500488281-.049987793-.25-.0099487305-.5599975586.1000366211-.7899780273.3499755859-.7299804688.950012207-1.2399902344,1.700012207-1.6900024414Z"/>
  <path class="cls-1" d="M37.5258464813,31.4230079651c-.1699829102.6500244141-.3200073242,1.3000488281-.5100097656,1.9400024414-.1900024414.6500244141-.6599731445,1-1.3299560547,1.0500488281-.3800048828.0299682617-.7600097656.0299682617-1.1400146484.0299682617-.299987793,0-.5400390625.1199951172-.5400390625.4400024414-.0099487305.2899780273.1800537109.450012207.4800415039.450012207.4099731445,0,.8200073242.0200195312,1.2199707031-.0200195312,1.0599975586-.0999755859,1.8200073242-.6199951172,2.1700439453-1.6599731445.0699462891-.2100219727.1399536133-.4200439453.1900024414-.6400146484.2799682617-1.0999755859.5599975586-2.1799926758.8199462891-3.2800292969.0500488281-.2299804688.0700073242-.5,0-.7299804688-.4099731445-1.3300170898-1.3399658203-2.200012207-2.5799560547-2.7399902344-.4600219727-.200012207-.7800292969-.0200195312-.950012207.4600219727-.200012207.5699462891-.3800048828,1.1399536133-.5900268555,1.7099609375-.2799682617.7800292969-.5399780273,1.5599975586-.8800048828,2.3099975586-.2599487305.5900268555-.3599853516.6000366211-.9799804688.4299926758-.2799682617-.0799560547-.5200195312-.0299682617-.6199951172.25-.1099853516.3099975586.0599975586.4900512695.3400268555.6100463867.8199462891.3399658203,1.4799804688.1799926758,1.8899536133-.5900268555.4100341797-.7899780273.700012207-1.6300048828,1.0200195312-2.4600219727.2299804688-.5799560547.4099731445-1.1799926758.6400146484-1.8299560547h.0100097656c.75.4599609375,1.3599853516.9699707031,1.6999511719,1.6999511719.1100463867.25.1200561523.5800170898.0700073242.8600463867-.1099853516.5700073242-.2799682617,1.1399536133-.4299926758,1.7099609375Z"/>
  <path class="cls-1" d="M31.8558635712,21.2130470276c.5599975586.0100097656,1.1099853516.0100097656,1.6599731445,0,.3800048828-.0100097656.5400390625-.1799926758.5400390625-.5700073242v-7.2800292969c0-.3899536133-.1500244141-.549987793-.5500488281-.549987793h-1.5399780273c-.5599975586.0100097656-.6599731445.1099853516-.6599731445.6799926758v3.5400390625h.0099487305v3.6199951172c0,.3899536133.1500244141.5599975586.5400390625.5599975586ZM32.2058391571,14.4130592346c0-.7900390625.1000366211-.8600463867.9100341797-.6500244141v6.5200195312h-.8800048828c-.0100097656-.1600341797-.0300292969-.3300170898-.0300292969-.4900512695v-5.3799438477Z"/>
  <path class="cls-1" d="M29.6658611298,14.7930030823h-1.5399780273c-.4800415039,0-.6100463867.1300048828-.6100463867.6000366211v5.2299804688c0,.4400024414.1500244141.6000366211.5900268555.6000366211h1.5399780273c.4600219727,0,.6199951172-.1600341797.6199951172-.6100463867v-2.5999755859l-.0100097656-.0100097656v-2.6300048828c0-.4400024414-.1399536133-.5800170898-.5899658203-.5800170898ZM29.3258342743,20.2930030823h-.8599853516v-4.5699462891h.8599853516v4.5699462891Z"/>
  <path class="cls-1" d="M32.185880661,28.0530128479c-.3099975586.0300292969-.6400146484-.0100097656-.9400024414.0599975586-.1600341797.0400390625-.3800048828.2400512695-.3900146484.3800048828-.0200195312.1400146484.1699829102.4200439453.299987793.4400024414,1.2399902344.1700439453,2.3499755859-.0700073242,2.7100219727-1.4400024414.1900024414-.7199707031.3200073242-1.4599609375.549987793-2.1699829102.2399902344-.7299804688.1099853516-1.3599853516-.3800048828-1.9000244141-.299987793-.3299560547-.6500244141-.6499633789-1.0300292969-.8999633789-.549987793-.3699951172-1.0699462891-.4100341797-1.3299560547.4699707031-.2600097656.8699951172-.6100463867,1.700012207-.9200439453,2.549987793-.0999755859.2600097656-.2699584961.3600463867-.5599975586.25-.2799682617-.1099853516-.5.0200195312-.5899658203.2900390625-.1000366211.2699584961.0599975586.450012207.299987793.5599975586.5800170898.2700195312,1.1300048828.1300048828,1.4799804688-.4100341797.1900024414-.2799682617.3300170898-.5899658203.450012207-.9099731445.25-.6400146484.4600219727-1.299987793.6900024414-1.950012207h.0100097656c.049987793-.0199584961.0900268555-.0399780273.1400146484-.0599975586.2799682617.3200073242.5799560547.6199951172.8399658203.9600219727.0900268555.1199951172.1400146484.3300170898.1100463867.4799804688-.2100219727.8900146484-.4400024414,1.7800292969-.6800537109,2.6600341797-.0999755859.3699951172-.3599853516.5999755859-.7599487305.6399536133Z"/>
  <path class="cls-1" d="M17.3258342743,23.5830421448h.0100097656c.0399780273.0200195312.0900268555.0399780273.1300048828.0599975586.1300048828.3699951172.25.7399902344.3900146484,1.0999755859.2399902344.5900268555.4400024414,1.200012207.75,1.7600097656.299987793.549987793.75.6600341797,1.3499755859.4600219727.2900390625-.0900268555.5300292969-.25.4299926758-.5900268555-.0899658203-.3299560547-.3599853516-.3900146484-.6599731445-.2799682617-.2200317383.0799560547-.3499755859,0-.4400024414-.1900024414-.0900268555-.1700439453-.1799926758-.3500366211-.25-.5300292969-.2600097656-.75-.5200195312-1.5100097656-.7800292969-2.2600097656-.1900024414-.5299682617-.5-.6799926758-1.0099487305-.4400024414-.7300415039.3500366211-1.3200073242.8800048828-1.6400146484,1.6300048828-.1300048828.2800292969-.1699829102.6500244141-.1099853516.950012207.1499633789.8099975586.3899536133,1.6000366211.5899658203,2.4000244141.3699951172,1.5399780273,1.4400024414,1.700012207,2.7200317383,1.5899658203.1300048828-.0100097656.3299560547-.2699584961.3299560547-.3999633789-.0099487305-.1600341797-.1799926758-.3600463867-.3299560547-.450012207-.1300048828-.0700073242-.3300170898-.0200195312-.5-.0200195312-.9200439453-.0100097656-1.1500244141-.1900024414-1.3800048828-1.0700073242-.1799926758-.7199707031-.3699951172-1.4400024414-.5300292969-2.1699829102-.0399780273-.1900024414-.0100097656-.4400024414.0900268555-.5900268555.25-.3399658203.5599975586-.6399536133.8399658203-.9599609375Z"/>
  <path class="cls-1" d="M23.7458782196,14.5430030823c.0999755859-2.0599975586-1.8000488281-4.0299682617-3.8699951172-4.0099487305-.3900146484,0-.5500488281.1499633789-.5500488281.549987793v3.4199829102c0,.3200073242.1500244141.5200195312.5.5200195312h3.4299926758c.3200073242,0,.4700317383-.1600341797.4900512695-.4800415039ZM20.2658367157,14.1130104065v-2.5999755859c1.1799926758.0299682617,2.4800415039,1.3800048828,2.5,2.5999755859h-2.5Z"/>
  <path class="cls-1" d="M24.3058757782,16.7730445862c-.4000244141,0-.5500488281.1400146484-.5500488281.5399780273v3.3400268555c0,.3999633789.1600341797.5700073242.5700073242.5700073242.5300292969,0,1.0700073242.0099487305,1.6100463867,0,.3899536133-.0100097656.549987793-.1700439453.549987793-.5599975586v-3.3300170898c0-.4199829102-.1400146484-.5599975586-.5700073242-.5599975586h-1.6099853516ZM25.5458660126,20.2930030823h-.8599853516v-2.5999755859h.8599853516v2.5999755859Z"/>
</svg>