<?xml version="1.0" encoding="UTF-8"?>
<svg id="OfficeSpace" xmlns="http://www.w3.org/2000/svg" viewBox="0 0 50 50">
  <defs>
    <style>
      .cls-1 {
        fill: #5f5f5f;
      }
    </style>
  </defs>
  <path class="cls-1" d="M41.6900310516,4.9999732971H8.3299846649c-.3599853516,0-.7299804688.0400390625-1.0799560547.1300048828-1.299987793.3500366211-2.1000366211,1.4900512695-2.1000366211,2.950012207v33.75c0,1.9700317383,1.2100219727,3.1699829102,3.1799926758,3.1699829102h33.3600463867c1.9399414062,0,3.1599731445-1.2099609375,3.1599731445-3.1399536133V8.1499977112c0-1.9400024414-1.2200317383-3.1500244141-3.1599731445-3.1500244141ZM31.3399944305,43.530002594c0,.3599853516-.1833496094.5399780273-.549987793.5399780273H8.2099895477c-1.3499755859,0-2.1300048828-.7799682617-2.1300048828-2.1300048828V8.0699806213c0-1.3800048828.7700195312-2.1599731445,2.1400146484-2.1599731445h22.5399780273c.3800048828,0,.5700073242.1866455078.5700073242.5599975586v23.5399780273h.0100097656v13.5200195312ZM33.2599773407,6.530002594v36.9400024414c0,.5700073242-.3499755859.8099975586-.8800048828.5899658203-.0599975586-.0299682617-.1199951172-.1299438477-.1299438477-.2099609375-.0100097656-.1300048828,0-.2700195312,0-.4000244141v-13.4400024414h-.0100097656V6.4300270081c0-.1700439453.0399780273-.4600219727.0999755859-.4700317383.2700195312-.0399780273.5599975586-.0200195312.8400268555,0,.0399780273,0,.0799560547.1400146484.0799560547.2100219727v.3599853516ZM43.9400310516,42.0500221252c0,1.2299804688-.8200073242,2.0399780273-2.0500488281,2.0399780273-2.4099731445,0-4.8200073242-.0200195312-7.2299804688,0-.3800048828,0-.4699707031-.1199951172-.4699707031-.4799804688v-13.6400146484l.0099487305.0200195312V6.4900245667c0-.3666992188.1799926758-.5500488281.5400390625-.5500488281h7.1499633789c1.2300415039,0,2.0500488281.8099975586,2.0500488281,2.0400390625v34.0700073242Z"/>
  <path class="cls-1" d="M28.7500286102,30.9700050354c-.4400024414,0-.8900146484-.0300292969-1.3300170898,0-.3500366211.0200195312-.5100097656-.0700073242-.4799804688-.4600219727.0299682617-.4699707031,0-.9400024414,0-1.4099731445-.0200195312-.9100341797-.6100463867-1.5200195312-1.5300292969-1.5200195312h-2.7100219727c-.9199829102.0100097656-1.5199584961.6000366211-1.5299682617,1.5200195312,0,.5100097656-.0100097656,1.0199584961,0,1.5299682617,0,.2399902344-.0700073242.3400268555-.3200073242.3400268555h-3.799987793c-.2200317383,0-.299987793-.0900268555-.299987793-.3099975586v-1.5300292969c-.0100097656-.9400024414-.6000366211-1.549987793-1.5400390625-1.549987793h-2.6699829102c-.9600219727,0-1.5599975586.6000366211-1.5599975586,1.5700073242,0,.4899902344-.0100097656.9899902344,0,1.4899902344.0100097656.25-.0900268555.3300170898-.3300170898.3300170898h-1.8599853516c-.4699707031,0-.7199707031.1699829102-.7199707031.4699707031,0,.2900390625.25.450012207.7299804688.450012207.6099853516,0,1.2099609375.0100097656,1.8200073242,0,.2599487305,0,.3499755859.0800170898.3499755859.3500366211v2.3399658203c0,.506652832-.2466430664.7600097656-.7399902344.7600097656-.8300170898,0-1.200012207.3499755859-1.200012207,1.1599731445-.0100097656.8500366211.3499755859,1.2100219727,1.1900024414,1.2100219727.950012207,0,1.8900146484-.0100097656,2.8300170898,0,.1099853516,0,.3200073242.1199951172.3200073242.1799926758.0099487305.7700195312.0099487305,1.549987793.0099487305,2.3300170898-.2799682617.0399780273-.5.0800170898-.7299804688.1099853516-.8900146484.1199951172-1.7899780273.2200317383-2.6799926758.3400268555-.2700195312.0399780273-.4699707031.2099609375-.4400024414.4899902344.0300292969.299987793.25.450012207.549987793.4099731445.4700317383-.049987793.9299926758-.1199951172,1.4000244141-.1799926758.6199951172-.0700073242,1.2399902344-.1400146484,1.9099731445-.2199707031v.8399658203c.0100097656.2900390625.1400146484.5300292969.4400024414.5300292969.3300170898.0100097656.4800415039-.2200317383.4800415039-.5300292969v-.799987793c.6299438477.1199951172,1.1799926758.2100219727,1.7299804688.3300170898.3099975586.0700073242.549987793.0100097656.6199951172-.3200073242s-.1300048828-.4899902344-.4400024414-.549987793c-.5399780273-.1000366211-1.0800170898-.2200317383-1.6199951172-.3200073242-.2100219727-.0399780273-.299987793-.1300048828-.299987793-.3500366211v-1.9799804688c0-.2299804688.0899658203-.299987793.3099975586-.299987793h1.3699951172c.5899658203-.0100097656.7399902344-.1599731445.7399902344-.7399902344,0-1.5599975586.0100097656-3.1199951172,0-4.6799926758,0-.2800292969.0599975586-.4000244141.3800048828-.4000244141,1.2199707031.0100097656,2.450012207.0100097656,3.6699829102,0,.2800292969,0,.3699951172.0900268555.3699951172.3699951172-.0100097656.7700195312,0,1.5300292969,0,2.299987793,0,.5200195312-.2532958984.7800292969-.7600097656.7800292969-.8199462891,0-1.1799926758.3599853516-1.1799926758,1.1799926758s.3600463867,1.1900024414,1.1799926758,1.1900024414c.9300537109,0,1.8600463867.0200195312,2.7900390625,0,.3300170898,0,.4199829102.1099853516.4099731445.4199829102-.0199584961.5100097656,0,1.0200195312,0,1.5300292969q0,.6099853516-.5999755859.6799926758c-.9199829102.1099853516-1.8400268555.2299804688-2.7600097656.3399658203-.3099975586.0400390625-.5399780273.200012207-.4899902344.5200195312.0399780273.3200073242.2799682617.4299926758.5999755859.3800048828.4899902344-.0800170898.9899902344-.1400146484,1.4800415039-.200012207.5699462891-.0700073242,1.1399536133-.1300048828,1.7699584961-.200012207v.8600463867c.0100097656.299987793.1600341797.5099487305.4600219727.5099487305.299987793-.0099487305.450012207-.2299804688.450012207-.5199584961v-.8099975586l.0299682617-.0300292969c.6099853516.1199951172,1.1600341797.2100219727,1.7100219727.3300170898.3099975586.0599975586.5599975586.0299682617.6400146484-.299987793.0799560547-.3500366211-.1300048828-.5100097656-.4600219727-.5700073242-.5300292969-.0900268555-1.049987793-.2200317383-1.5800170898-.3099975586-.2199707031-.0400390625-.3099975586-.1500244141-.3099975586-.3800048828.0100097656-.6500244141.0100097656-1.2900390625,0-1.9400024414-.0100097656-.25.0900268555-.3200073242.3300170898-.3200073242h1.3300170898c.6199951172,0,.7600097656-.1500244141.7600097656-.7600097656,0-1.5299682617.0199584961-3.0700073242,0-4.5999755859-.0100097656-.3400268555.0699462891-.4899902344.4399414062-.4600219727.450012207.0200195312.9100341797,0,1.3700561523,0,.3199462891,0,.5899658203-.1099853516.5899658203-.4600219727,0-.3499755859-.2700195312-.4599609375-.5899658203-.4599609375ZM15.3999919891,36.8199806213c-1.6900024414,0-3.3699951172-.0199584961-5.049987793,0-.3900146484,0-.4700317383-.1399536133-.3499755859-.5199584961v.0099487305h5.7799682617c.0100097656.1500244141.0300292969.2900390625.0300292969.4800415039-.1500244141.0100097656-.2800292969.0299682617-.4100341797.0299682617ZM15.8299846649,34.9999732971c0,.2800292969-.0899658203.3700561523-.3699951172.3700561523-1.0700073242-.0100097656-2.1300048828-.0100097656-3.1900024414,0-.2600097656.0099487305-.3800048828-.0500488281-.3800048828-.3500366211v-5.8800048828c0-.4199829102.1700439453-.5999755859.5800170898-.5999755859h2.7399902344c.4299926758,0,.6000366211.1699829102.6000366211.6199951172v2.9400024414h.0199584961c0,.9699707031-.0100097656,1.9299926758,0,2.8999633789ZM25.9499797821,36.780002594h-5.7699584961c-.1199951172-.3800048828-.0200195312-.5100097656.3599853516-.5100097656,1.6900024414.0100097656,3.3699951172.0100097656,5.049987793,0,.3800048828,0,.4799804688.1300048828.3599853516.5100097656ZM26.0099773407,34.9399757385c0,.3000488281-.0599975586.4200439453-.3999633789.4200439453-1.0400390625-.0200195312-2.0900268555-.0200195312-3.1400146484,0-.3400268555.0100097656-.4000244141-.1199951172-.4000244141-.4200439453v-2.8999633789h.0200195312v-2.8599853516c0-.4900512695.1500244141-.6500244141.6500244141-.6500244141h2.6199951172c.4899902344,0,.6499633789.1599731445.6499633789.6500244141,0,1.9199829102-.0099487305,3.8399658203,0,5.7599487305Z"/>
  <path class="cls-1" d="M8.6900310516,11.7099952698c.25.2399902344.4899902344.1099853516.6999511719-.0999755859.6799926758-.6799926758,1.3600463867-1.3500366211,2.0300292969-2.0300292969.1099853516-.1099853516.2399902344-.2199707031.3200073242-.3599853516.1799926758-.299987793-.0200195312-.6600341797-.4600219727-.6600341797v.0100097656c-.0599975586.0500488281-.2100219727.1100463867-.3200073242.2200317383-.7399902344.7199707031-1.4699707031,1.4599609375-2.1999511719,2.1900024414-.2300415039.2199707031-.3400268555.4699707031-.0700073242.7299804688Z"/>
  <path class="cls-1" d="M9.6700115204,8.5400123596c.0800170898-.0900268555.0399780273-.4400024414-.0599975586-.5200195312-.1300048828-.0999755859-.4600219727-.1300048828-.5599975586-.0399780273-.5100097656.450012207-.9899902344.950012207-1.450012207,1.450012207-.0800170898.0899658203-.0800170898.3199462891-.0299682617.4400024414.049987793.1199951172.2199707031.1999511719.3200073242.2899780273h.0099487305c.1199951172-.049987793.2200317383-.0599975586.2700195312-.1099853516.5100097656-.5,1.0299682617-.9800415039,1.5-1.5100097656Z"/>
  <path class="cls-1" d="M40.8399944305,22.280002594h-4.0800170898c-.3899536133.0100097656-.5799560547.1799926758-.5799560547.5700073242v2.6599731445c.0099487305.4100341797.1900024414.5900268555.5999755859.5900268555h4.0800170898c.4099731445,0,.5999755859-.1799926758.5999755859-.5900268555v-2.6199951172c0-.4299926758-.1799926758-.6099853516-.6199951172-.6099853516ZM40.5400066376,24.9100074768c0,.2100219727-.0900268555.2799682617-.2899780273.2799682617h-1.450012207c-.4600219727,0-.9100341797-.0099487305-1.3699951172,0-.2399902344.0100097656-.3300170898-.0699462891-.3300170898-.3199462891.0100097656-.4600219727.0100097656-.9100341797,0-1.3700561523-.0100097656-.2299804688.0900268555-.299987793.3099975586-.299987793h2.8200073242c.2199707031,0,.3099975586.0700073242.3099975586.299987793-.0100097656.4700317383,0,.9400024414,0,1.4100341797Z"/>
  <path class="cls-1" d="M37.9599895477,31.0099830627h-2.1799926758c-.3099975586,0-.5599975586.1300048828-.5599975586.450012207s.2399902344.4600219727.549987793.4600219727h2.1799926758c.3300170898,0,.5800170898-.1199951172.5800170898-.4700317383-.0100097656-.3200073242-.2600097656-.4400024414-.5700073242-.4400024414Z"/>
</svg>