<?xml version="1.0" encoding="UTF-8"?>
<svg id="Parking" xmlns="http://www.w3.org/2000/svg" viewBox="0 0 50 50">
  <defs>
    <style>
      .cls-1 {
        fill: #5f5f5f;
      }
    </style>
  </defs>
  <path class="cls-1" d="M25.0000286102,6.0649147034C14.5591106415,6.0649147034,6.0649700165,14.5591163635,6.0649700165,24.9999732971c0,10.4404296875,8.494140625,18.9350585938,18.9350585938,18.9350585938,10.4403686523,0,18.9350585938-8.4946289062,18.9350585938-18.9350585938,0-10.4408569336-8.4946899414-18.9350585938-18.9350585938-18.9350585938ZM25.0000286102,42.9300270081c-9.8869018555,0-17.9300537109-8.0431518555-17.9300537109-17.9300537109C7.0699748993,15.1131324768,15.1131267548,7.0699806213,25.0000286102,7.0699806213c9.8868408203,0,17.9299926758,8.0431518555,17.9299926758,17.9299926758,0,9.8869018555-8.0431518555,17.9300537109-17.9299926758,17.9300537109Z"/>
  <path class="cls-1" d="M25.5102825165,14.3351783752h-7.0502929688c-.2802734375,0-.5053710938.080078125-.6748046875.2397460938-.1704101562.1606445312-.2553710938.400390625-.2553710938.7202148438v19.4096679688c0,.2998046875.080078125.53515625.240234375.705078125.1596679688.169921875.3798828125.2548828125.66015625.2548828125.3193359375,0,.5546875-.0849609375.705078125-.2548828125.1499023438-.169921875.224609375-.4052734375.224609375-.705078125v-7.8896484375h6.150390625c2.2392578125,0,3.9599609375-.544921875,5.16015625-1.6352539062,1.19921875-1.08984375,1.7998046875-2.625,1.7998046875-4.6049804688,0-1.9995117188-.6005859375-3.5400390625-1.7998046875-4.6196289062-1.2001953125-1.080078125-2.9208984375-1.6201171875-5.16015625-1.6201171875ZM29.2895793915,24.0251197815c-.8798828125.7797851562-2.189453125,1.169921875-3.9296875,1.169921875h-6v-9.2700195312h6c1.740234375,0,3.0498046875.3950195312,3.9296875,1.1850585938.8798828125.7905273438,1.3203125,1.9453125,1.3203125,3.46484375,0,1.5205078125-.4404296875,2.669921875-1.3203125,3.4501953125Z"/>
</svg>