<?xml version="1.0" encoding="UTF-8"?>
<svg id="PrivatePod" xmlns="http://www.w3.org/2000/svg" viewBox="0 0 50 50">
  <defs>
    <style>
      .cls-1 {
        fill: #5f5f5f;
      }
    </style>
  </defs>
  <path class="cls-1" d="M36.930021286,5.155002594H13.1000041962c-.4400024414,0-.8900146484.0599975586-1.3200073242.1799926758-1.7299804688.450012207-2.8099975586,1.950012207-2.8099975586,3.8800048828v31.4799804688c0,2.5300292969,1.6199951172,4.1500244141,4.1500244141,4.1500244141h23.7799682617c2.4899902344-.0100097656,4.1300048828-1.6300048828,4.1300048828-4.1199951172V9.2549781799c0-2.4599609375-1.6400146484-4.0999755859-4.0999755859-4.0999755859ZM20.6000041962,43.6349830627h-7.8200073242c-1.4899902344-.0100097656-2.5999755859-1.1199951172-2.5999755859-2.6099853516v-16.0299682617l.0100097656-.0300292969v-15.8099975586c0-1.7800292969,1.0399780273-2.8200073242,2.8199462891-2.8200073242,2.5200195312,0,5.0300292969.0200195312,7.5500488281,0,.4799804688,0,.6399536133.1300048828.6399536133.6300048828-.0199584961,5.3800048828-.0199584961,10.7600097656,0,16.1400146484,0,.5399780273-.1900024414.6499633789-.6799926758.6499633789-1.799987793-.0199584961-3.6099853516,0-5.4099731445,0-.7700195312,0-.9899902344.2200317383-.9899902344.9800415039,0,.4299926758-.0100097656.8499755859,0,1.2799682617.0100097656.5900268555.25.8500366211.8499755859.8500366211.8699951172.0199584961,1.75-.0100097656,2.6199951172.0199584961.2399902344.0100097656.5300292969.1300048828.700012207.2900390625.8900146484.8699951172,1.7600097656,1.7699584961,2.6099853516,2.6799926758.1600341797.1799926758.2700195312.4699707031.2700195312.7099609375.0200195312,4.1700439453.0100097656,8.3300170898.0200195312,12.5,0,.450012207-.1600341797.5700073242-.5900268555.5700073242ZM21.1900310516,25.2950172424c.0099487305.3800048828-.2400512695.3699951172-.5.3699951172h-4.8600463867c-.2600097656,0-.5.0100097656-.5-.3699951172.0100097656-.3900146484.2800292969-.3400268555.5200195312-.3400268555h4.8200073242c.2399902344,0,.5200195312-.049987793.5200195312.3400268555ZM20.9599895477,28.3249855042l-1.2299804688-1.1900024414c.049987793-.0799560547.0899658203-.1699829102.1400146484-.25.3999633789.0200195312.9599609375-.0999755859,1.1699829102.1100463867.2299804688.2299804688.1300048828.7799682617.1699829102,1.1899414062-.0799560547.0500488281-.1699829102.0900268555-.25.1400146484ZM23.7599773407,24.9850196838v17.8899536133c0,.6800537109-.5899658203,1.0300292969-1.1900024414.7100219727-.0899658203-.049987793-.1399536133-.1900024414-.1599731445-.299987793-.0200195312-.1699829102-.0100097656-.3499755859-.0100097656-.5300292969V7.2350196838c0-.0500488281-.0100097656-.1100463867,0-.1600341797.049987793-.2299804688.0700073242-.6199951172.1699829102-.6499633789.3300170898-.0800170898.700012207-.0300292969,1.0500488281-.0100097656.049987793,0,.1199951172.1699829102.1300048828.2600097656.0099487305.1999511719.0099487305.3899536133.0099487305.5899658203v17.7200317383ZM39.8199748993,40.9250221252c0,1.6300048828-1.0799560547,2.7099609375-2.7199707031,2.7099609375h-11.4000244141c-.7399902344,0-.7399902344-.0100097656-.7399902344-.7299804688V7.1249732971q0-.7599487305.7600097656-.7599487305h11.3499755859c1.6800537109,0,2.75,1.0699462891,2.75,2.7299804688v31.8300170898Z"/>
  <path class="cls-1" d="M36.6200237274,18.7150001526c-.3500366211-.1199951172-.7200317383-.2199707031-1.0599975586-.3699951172-.5100097656-.2200317383-1.0100097656-.2600097656-1.4899902344.0399780273-.5600585938.3500366211-.9200439453.0200195312-1.2600097656-.3299560547-.3400268555-.3500366211-.6500244141-.6700439453-.3699951172-1.2600097656.1799926758-.3699951172.1900024414-.8600463867.1299438477-1.2700195312-.0599975586-.450012207-.2899780273-.8699951172-.4399414062-1.3099975586-.2800292969-.799987793-.9600219727-1.299987793-1.8000488281-1.25-.5799560547.0300292969-1.1699829102.1099853516-1.7399902344.25-.8200073242.200012207-1.3300170898.9199829102-1.3300170898,1.8699951172.0100097656.0900268555.0200195312.2700195312.0500488281.4400024414.7099609375,3.6099853516,4.3999633789,7.2800292969,8.049987793,8.0100097656,1.2199707031.25,2.1699829102-.4100341797,2.3699951172-1.6300048828.0599975586-.3499755859.1099853516-.700012207.1699829102-1.049987793.1500244141-.9700317383-.3399658203-1.8099975586-1.2799682617-2.1400146484ZM36.730009079,20.6449928284c-.0599975586.3699951172-.1000366211.75-.1699829102,1.1099853516-.1100463867.5300292969-.4600219727.7400512695-.9800415039.6400146484-3.2099609375-.6300048828-6.5700073242-3.9799804688-7.1599731445-7.1499633789-.0900268555-.4900512695.1300048828-.8300170898.6199951172-.950012207.0399780273-.0200195312.0700073242-.0200195312.1099853516-.0200195312,2.1300048828-.3699951172,1.6300048828-.1099853516,2.299987793,1.6300048828.0800170898.1900024414-.0799560547.5100097656-.2099609375.7299804688-.25.4299926758-.2800292969.8500366211.0299682617,1.2399902344.3900146484.4800415039.7600097656.9900512695,1.2200317383,1.3900146484.5799560547.5100097656,1.2399902344.75,1.9899902344.2200317383.1599731445-.1100463867.4699707031-.0800170898.6900024414-.0300292969.3300170898.0700073242.6400146484.2200317383.9600219727.3200073242.4399414062.1400146484.6599731445.4099731445.6099853516.8800048828l-.0100097656-.0100097656Z"/>
  <path class="cls-1" d="M29.9599895477,26.3249855042h-2.8900146484c-.3799438477.0100097656-.7099609375.1799926758-.7099609375.5800170898-.0100097656.4299926758.3300170898.6099853516.7299804688.6099853516h1.450012207c.4865112305.0001220703.9633178711.0099487305,1.4400024414,0,.3800048828-.0100097656.7100219727-.1799926758.7100219727-.5800170898,0-.4299926758-.3300170898-.6099853516-.7300415039-.6099853516Z"/>
  <path class="cls-1" d="M17.2199993134,9.8849830627l-.0100097656-.0100097656c-.1599731445-.1799926758-.2699584961-.4499511719-.4400024414-.4799804688-.2199707031-.0399780273-.5399780273.0300292969-.700012207.1799926758-1.0099487305.9600219727-1.9799804688,1.950012207-2.9599609375,2.9299926758-.2800292969.2800292969-.4299926758.6000366211-.1000366211.9299926758.3400268555.3300170898.6500244141.1700439453.9300537109-.1099853516.9799804688-.9599609375,1.9499511719-1.9299926758,2.9099731445-2.8999633789.1300048828-.1300048828.2199707031-.3099975586.3699951172-.5400390625Z"/>
  <polygon class="cls-1" points="14.4599895477 8.9750099182 14.4568767548 8.980381012 14.4599895477 8.9850196838 14.4599895477 8.9750099182"/>
  <path class="cls-1" d="M14.4568767548,8.980381012c-.1381835938-.1796264648-.2279052734-.4255371094-.3568725586-.4453735352-.2299804688-.0399780273-.5599975586-.0100097656-.7200317383.1300048828-.5799560547.5-1.0999755859,1.0599975586-1.6399536133,1.5999755859-.2800292969.2700195312-.4400024414.5800170898-.1099853516.9199829102.3399658203.3300170898.6499633789.1800537109.9299926758-.0999755859.5199584961-.5200195312,1.0399780273-1.0200195312,1.5399780273-1.549987793.1387939453-.1387939453.2191772461-.3369140625.3568725586-.5546264648Z"/>
</svg>