<?xml version="1.0" encoding="UTF-8"?>
<svg id="Receptionist" xmlns="http://www.w3.org/2000/svg" viewBox="0 0 50 50">
  <defs>
    <style>
      .cls-1 {
        fill: #5f5f5f;
      }
    </style>
  </defs>
  <path class="cls-1" d="M24.9997844696,14.690158844c-3.3495483398,0-6.0746459961,2.7250976562-6.0746459961,6.0746459961,0,3.3499755859,2.7250976562,6.0750732422,6.0746459961,6.0750732422,3.3494873047,0,6.0750732422-2.7250976562,6.0750732422-6.0750732422,0-3.3495483398-2.7255859375-6.0746459961-6.0750732422-6.0746459961ZM24.9997844696,25.8377418518c-2.7970581055,0-5.0725097656-2.2758789062-5.0725097656-5.0729370117s2.2754516602-5.0725097656,5.0725097656-5.0725097656c2.7975463867,0,5.0729370117,2.2754516602,5.0729370117,5.0725097656s-2.2754516602,5.0729370117-5.0729370117,5.0729370117Z"/>
  <path class="cls-1" d="M37.0633831024,8.8234596252H12.9361248016c-2.1868896484,0-3.9661254883,1.7792358398-3.9661254883,3.9660644531v24.4213867188c0,2.1864013672,1.7792358398,3.965637207,3.9661254883,3.965637207h24.1272583008c2.1873779297,0,3.9666137695-1.7792358398,3.9666137695-3.965637207V12.7895240784c0-2.1868286133-1.7792358398-3.9660644531-3.9666137695-3.9660644531ZM36.1777019501,40.1743507385H13.8222942352v-1.8555297852c0-4.5107421875,3.6700439453-8.1807861328,8.1807861328-8.1807861328h5.9938964844c4.5106811523,0,8.1807250977,3.6700439453,8.1807250977,8.1807861328v1.8555297852ZM40.0277996063,37.2109107971c0,1.594543457-1.2684936523,2.8890991211-2.8479614258,2.9517211914v-1.8438110352c0-5.0637207031-4.1192016602-9.1829223633-9.1828613281-9.1829223633h-5.9938964844c-5.0637207031,0-9.1829223633,4.1192016602-9.1829223633,9.1829223633v1.8438110352c-1.5796508789-.0624389648-2.8479614258-1.3569946289-2.8479614258-2.9517211914V12.7895240784c0-1.6343383789,1.3295288086-2.9638671875,2.9639282227-2.9638671875h24.1272583008c1.6343994141,0,2.9644165039,1.3295288086,2.9644165039,2.9638671875v24.4213867188Z"/>
</svg>