<?xml version="1.0" encoding="UTF-8"?>
<svg id="Shower" xmlns="http://www.w3.org/2000/svg" viewBox="0 0 50 50">
  <defs>
    <style>
      .cls-1 {
        fill: #5f5f5f;
      }
    </style>
  </defs>
  <path class="cls-1" d="M17.4597454071,11.1903419495v-.7400512695h10.6789550781c.1779174805,0,.3229370117.1450195312.3229370117.3229980469v2.4736938477c-3.7260131836.1208496094-6.7171630859,2.8266601562-6.7171630859,6.1441040039v.526550293h13.9485473633v-.526550293c0-3.1561889648-2.7067260742-5.7622070312-6.1782226562-6.1123657227v-2.5054321289c0-.7590332031-.6170654297-1.376159668-1.3760986328-1.376159668h-10.6789550781v-.8603515625c0-.4514770508-.3676757812-.8192138672-.8192138672-.8192138672h-6.6173706055v-1.1524047852c0-.2910766602-.2354736328-.5266113281-.526550293-.5266113281s-.5266113281.235534668-.5266113281.5266113281v6.7171630859c0,.291015625.235534668.526550293.5266113281.526550293s.526550293-.235534668.526550293-.526550293v-1.2728271484h6.6173706055c.4515380859,0,.8192138672-.3676757812.8192138672-.819152832ZM34.6089763641,18.8644752502h-11.7799072266c.3064575195-2.5671386719,2.8309326172-4.5758056641,5.8897094727-4.5758056641,3.0587158203,0,5.5827026367,2.0086669922,5.8901977539,4.5758056641ZM16.406583786,10.9563331604h-6.3834228516v-2.185546875h6.3834228516v2.185546875Z"/>
  <path class="cls-1" d="M17.5909099579,40.9612770081c-.2828369141-.0770874023-.5703125.0915527344-.6443481445.3733520508l-.5225219727,1.9644775391c-.0745239258.2817993164.092590332.5697631836.3739013672.6448364258.0452270508.0123291016.091003418.0175170898.1357421875.0175170898.232421875,0,.4458618164-.1553344727.508605957-.3908691406l.5224609375-1.9644165039c.0745849609-.2817993164-.092590332-.5697631836-.373840332-.6448974609Z"/>
  <path class="cls-1" d="M18.8034954071,36.4040260315c-.2813110352-.0792236328-.5697631836.0925292969-.6443481445.3733520508l-.6701049805,2.5187988281c-.0745239258.2817993164.092590332.5697631836.3739013672.6448364258.0452270508.0123901367.091003418.0175170898.1357421875.0175170898.232421875,0,.4458618164-.1553344727.508605957-.3908691406l.6700439453-2.5187988281c.0745849609-.2817993164-.0925292969-.5697631836-.373840332-.6448364258Z"/>
  <path class="cls-1" d="M20.2475261688,30.9745826721c-.2792358398-.0761108398-.5698242188.0925292969-.6443481445.3733520508l-.7739868164,2.9096069336c-.0745239258.2817993164.092590332.5697631836.3739013672.6448364258.0452270508.0123901367.091003418.0175170898.1357421875.0175170898.232421875,0,.4458618164-.1553344727.508605957-.3908081055l.7739257812-2.9096679688c.0745849609-.2817993164-.092590332-.5697631836-.373840332-.6448364258Z"/>
  <path class="cls-1" d="M21.7552776337,25.3085670471c-.2771606445-.0750732422-.5692749023.0925292969-.6443481445.3733520508l-.8171386719,3.071105957c-.0745849609.2817993164.092590332.5697631836.373840332.6448364258.0452880859.0123291016.0905151367.0175170898.1358032227.0175170898.232421875,0,.4458618164-.1553344727.5085449219-.3908691406l.817199707-3.071105957c.0745239258-.2817993164-.092590332-.5697631836-.3739013672-.6448364258Z"/>
  <path class="cls-1" d="M23.140165329,22.1510353088c.0745849609-.2807617188-.092590332-.5692749023-.373840332-.6443481445-.2756347656-.0693969727-.5692749023.0920410156-.6443481445.373840332l-.396484375,1.4903564453c-.0745849609.2807617188.0925292969.5692749023.373840332.6443481445.0452270508.0117797852.0905151367.0174560547.1357421875.0174560547.2324829102,0,.4458618164-.1552734375.508605957-.3913574219l.396484375-1.4902954102Z"/>
  <path class="cls-1" d="M23.7310466766,38.9094581604c-.294128418-.0432128906-.5512695312.1717529297-.5857543945.4597167969l-.4376220703,3.6583862305c-.0344238281.2890014648.1717529297.5512695312.4602661133.5852050781.0216064453.003112793.0426635742.0041503906.0632324219.0041503906.2628173828,0,.4906005859-.196472168.5225219727-.4638671875l.4376220703-3.6583862305c.0344238281-.2890014648-.1717529297-.5512695312-.4602661133-.5852050781Z"/>
  <path class="cls-1" d="M24.3332195282,33.8708229065c-.294128418-.0411376953-.5512695312.1717529297-.5856933594.4597167969l-.3013916016,2.5198364258c-.0344238281.2890014648.1717529297.5512695312.4602661133.5852050781.0216064453.003112793.0426635742.0041503906.0632324219.0041503906.2628173828,0,.4906005859-.196472168.5225219727-.4638671875l.3013305664-2.5198364258c.0344238281-.2890014648-.1717529297-.5512695312-.4602661133-.5852050781Z"/>
  <path class="cls-1" d="M24.9909343719,28.3663063049c-.2998046875-.042175293-.5512695312.1717529297-.5856933594.4597167969l-.3101196289,2.594909668c-.0344238281.2890014648.1717529297.5512695312.4602661133.5852050781.0216064453.003112793.0426635742.0041503906.0632324219.0041503906.2633056641,0,.4906005859-.196472168.5225219727-.4638671875l.3100585938-2.594909668c.0344848633-.2890014648-.1717529297-.5512695312-.4602661133-.5852050781Z"/>
  <path class="cls-1" d="M25.8127117157,21.4928321838c-.2930908203-.0313720703-.5507202148.1722412109-.5856933594.4602661133l-.4546508789,3.8018188477c-.0344238281.2890014648.1718139648.5512695312.4608154297.5852050781.0210571289.003112793.042175293.0041503906.0627441406.0041503906.2632446289,0,.4906005859-.196472168.5224609375-.4638671875l.4545898438-3.8018798828c.0344848633-.2890014648-.1717529297-.5512695312-.4602661133-.5856933594Z"/>
  <path class="cls-1" d="M28.7187786102,40.9438209534c-.2910766602,0-.5266113281.235534668-.5266113281.5266113281v1.2598876953c0,.2910766602.235534668.5266113281.5266113281.5266113281.291015625,0,.526550293-.235534668.526550293-.5266113281v-1.2598876953c0-.2910766602-.235534668-.5266113281-.526550293-.5266113281Z"/>
  <path class="cls-1" d="M28.7187786102,36.3865089417c-.2910766602,0-.5266113281.235534668-.5266113281.5266113281v2.5187988281c0,.2910766602.235534668.5266113281.5266113281.5266113281.291015625,0,.526550293-.235534668.526550293-.5266113281v-2.5187988281c0-.2910766602-.235534668-.5266113281-.526550293-.5266113281Z"/>
  <path class="cls-1" d="M28.7187786102,30.9570655823c-.2910766602,0-.5266113281.235534668-.5266113281.5266113281v2.9096069336c0,.2910766602.235534668.5266113281.5266113281.5266113281.291015625,0,.526550293-.235534668.526550293-.5266113281v-2.9096069336c0-.2910766602-.235534668-.5266113281-.526550293-.5266113281Z"/>
  <path class="cls-1" d="M28.7187786102,25.2910499573c-.2910766602,0-.5266113281.235534668-.5266113281.5266113281v3.071105957c0,.2910766602.235534668.5266113281.5266113281.5266113281.291015625,0,.526550293-.235534668.526550293-.5266113281v-3.071105957c0-.2910766602-.235534668-.5266113281-.526550293-.5266113281Z"/>
  <path class="cls-1" d="M28.7187786102,21.4892311096c-.2910766602,0-.5266113281.235534668-.5266113281.526550293v1.4902954102c0,.2910766602.235534668.5266113281.5266113281.5266113281.291015625,0,.526550293-.235534668.526550293-.5266113281v-1.4902954102c0-.291015625-.235534668-.526550293-.526550293-.526550293Z"/>
  <path class="cls-1" d="M41.0124187469,43.3001441956l-.5214233398-1.9644775391c-.0740966797-.2807617188-.3589477539-.4525146484-.6438598633-.3743896484-.2817993164.0751342773-.448425293.3630981445-.3743896484.6438598633l.521484375,1.9644165039c.0627441406.2365722656.2756347656.3919067383.5090942383.3919067383.0441894531,0,.0894775391-.0051879883.1347045898-.0175170898.2818603516-.0750732422.448425293-.3630371094.3743896484-.6437988281Z"/>
  <path class="cls-1" d="M39.9479045868,39.2961769104l-.6695556641-2.5187988281c-.0750732422-.2797851562-.3537597656-.4505004883-.6448364258-.3733520508-.2807617188.0750732422-.4473876953.3630371094-.3733520508.6448364258l.6695556641,2.5187988281c.0627441406.235534668.2756347656.3908691406.5090942383.3908691406.0442504883,0,.0894775391-.0051269531.1357421875-.0175170898.2808227539-.0750732422.4474487305-.3630371094.3733520508-.6448364258Z"/>
  <path class="cls-1" d="M38.6078166962,34.2575416565l-.7744750977-2.9096069336c-.0740966797-.2797851562-.3620605469-.4525756836-.6448974609-.3733520508-.2807617188.0750732422-.448425293.3630371094-.3733520508.6448364258l.7744750977,2.9096679688c.0627441406.2354736328.2756347656.3908081055.5090942383.3908081055.0442504883,0,.0905151367-.0051269531.1358032227-.0175170898.2807617188-.0750732422.448425293-.3630371094.3733520508-.6448364258Z"/>
  <path class="cls-1" d="M37.1432170868,28.7530250549l-.8166503906-3.071105957c-.0740356445-.2797851562-.3599853516-.4494628906-.6448364258-.3733520508-.2808227539.0750732422-.4474487305.3630371094-.3733520508.6448364258l.8165893555,3.071105957c.0627441406.235534668.2756347656.3908691406.5091552734.3908691406.0441894531,0,.0904541016-.0051879883.1357421875-.0175170898.2807617188-.0750732422.4473876953-.3630371094.3733520508-.6448364258Z"/>
  <path class="cls-1" d="M35.7115154266,23.3708839417l-.3959350586-1.4902954102c-.0750732422-.2802734375-.3599853516-.4489746094-.6438598633-.3739013672-.2817993164.0750732422-.448425293.3630981445-.3743896484.6443481445l.3959960938,1.4902954102c.0627441406.235534668.2756347656.3913574219.5090942383.3913574219.0442504883,0,.0894775391-.0056762695.134765625-.0174560547.2817993164-.0750732422.448425293-.3630981445.3743286133-.6443481445Z"/>
  <path class="cls-1" d="M33.7059612274,38.9094581604c-.2890014648.0339355469-.4946899414.2962036133-.4597167969.5852050781l.4370727539,3.6583862305c.0319213867.2673950195.2592163086.4638671875.521484375.4638671875.0215454102,0,.0421142578-.0010375977.0637207031-.0041503906.2890014648-.0339355469.4947509766-.2962036133.459777832-.5852050781l-.4371337891-3.6583862305c-.0349731445-.2890014648-.3002929688-.5018920898-.5852050781-.4597167969Z"/>
  <path class="cls-1" d="M33.5310955048,37.4355812073c.2890014648-.0339355469.4947509766-.2962036133.459777832-.5852050781l-.3013916016-2.5198364258c-.0339355469-.2900390625-.3002929688-.5050048828-.5852050781-.4597167969-.2890014648.0339355469-.4946899414.2962036133-.4597167969.5852050781l.3013305664,2.5198364258c.0318603516.2673950195.2591552734.4638671875.5214233398.4638671875.0216064453,0,.042175293-.0010375977.0637817383-.0041503906Z"/>
  <path class="cls-1" d="M32.8821086884,32.0061378479c.2890014648-.0339355469.4947509766-.2962036133.459777832-.5852050781l-.3106079102-2.594909668c-.0349731445-.2890014648-.3044433594-.5018920898-.5852661133-.4597167969-.2890014648.0339355469-.4946899414.2962036133-.4597167969.5852050781l.3106079102,2.594909668c.0318603516.2673950195.2592163086.4638671875.521484375.4638671875.0215454102,0,.0421142578-.0010375977.0637207031-.0041503906Z"/>
  <path class="cls-1" d="M32.2043743134,26.3401222229c.2879638672-.0339355469.4946899414-.2962036133.4597167969-.5852050781l-.4545898438-3.8018798828c-.0349731445-.2894897461-.3003540039-.4957275391-.5852050781-.4602050781-.2890625.0349731445-.4947509766.2972412109-.459777832.5856933594l.4545898438,3.8018798828c.0319213867.2673950195.2592163086.4638671875.521484375.4638671875.0216064453,0,.042175293-.0010375977.0637817383-.0041503906Z"/>
</svg>