<?xml version="1.0" encoding="UTF-8"?>
<svg id="SolarPanels" xmlns="http://www.w3.org/2000/svg" viewBox="0 0 50 50">
  <defs>
    <style>
      .cls-1 {
        fill: #5f5f5f;
      }
    </style>
  </defs>
  <path class="cls-1" d="M24.999540329,18.495639801c-3.5864868164,0-6.5041503906,2.9176025391-6.5041503906,6.5040893555,0,3.5859985352,2.9176635742,6.5041503906,6.5041503906,6.5041503906,3.5864257812,0,6.5045776367-2.9181518555,6.5045776367-6.5041503906,0-3.5864868164-2.9181518555-6.5040893555-6.5045776367-6.5040893555ZM24.999540329,30.5054664612c-3.0361328125,0-5.5057983398-2.4696044922-5.5057983398-5.5057373047,0-3.0360717773,2.4696655273-5.5057373047,5.5057983398-5.5057373047,3.0365600586,0,5.5062255859,2.4696655273,5.5062255859,5.5057373047,0,3.0361328125-2.4696655273,5.5057373047-5.5062255859,5.5057373047Z"/>
  <path class="cls-1" d="M24.999540329,14.0175514221c.5513305664,0,.9978637695-.4470825195.9978637695-.9984130859v-3.0502319336c0-.5513916016-.4465332031-.9984130859-.9978637695-.9984130859-.5513916016,0-.9984130859.4470214844-.9984130859.9984130859v3.0502319336c0,.5513305664.4470214844.9984130859.9984130859.9984130859Z"/>
  <path class="cls-1" d="M33.4716472626,17.5270118713c.2554321289,0,.5108642578-.0975341797.705871582-.2925415039l2.1566772461-2.1571655273c.3900146484-.3899536133.3900146484-1.0222167969,0-1.4117431641-.3900146484-.3900146484-1.0217895508-.3900146484-1.4118041992,0l-2.1566162109,2.1571655273c-.3900146484.3899536133-.3900146484,1.022277832,0,1.4117431641.1950073242.1950073242.4504394531.2925415039.705871582.2925415039Z"/>
  <path class="cls-1" d="M40.0313396454,24.0013771057h-3.0507202148c-.5518188477,0-.9984130859.4465332031-.9984130859.9983520508,0,.5518798828.4465942383.9984130859.9984130859.9984130859h3.0507202148c.5518188477,0,.9984130859-.4465332031.9984130859-.9984130859,0-.5518188477-.4465942383-.9983520508-.9984130859-.9983520508Z"/>
  <path class="cls-1" d="M34.1775188446,32.765537262c-.3899536133-.3900146484-1.0217895508-.3900146484-1.4117431641,0-.3900146484.3899536133-.3900146484,1.0217285156,0,1.4117431641l2.1566162109,2.1576538086c.1950073242.1950073242.4505004883.2924804688.7059326172.2924804688s.5108642578-.0974731445.705871582-.2924804688c.3900146484-.3900146484.3900146484-1.0217895508,0-1.4118041992l-2.1566772461-2.1575927734Z"/>
  <path class="cls-1" d="M24.999540329,35.981967926c-.5513916016,0-.9984130859.4465332031-.9984130859.9984130859v3.0507202148c0,.5518188477.4470214844.9984130859.9984130859.9984130859.5513305664,0,.9978637695-.4465942383.9978637695-.9984130859v-3.0507202148c0-.5518798828-.4465332031-.9984130859-.9978637695-.9984130859Z"/>
  <path class="cls-1" d="M15.8224773407,32.765537262l-2.1571655273,2.1575927734c-.3900146484.3900146484-.3900146484,1.0217895508,0,1.4118041992.1950073242.1950073242.4504394531.2924804688.705871582.2924804688s.510925293-.0974731445.7059326172-.2924804688l2.1571044922-2.1576538086c.3900146484-.3900146484.3900146484-1.0217895508,0-1.4117431641-.3899536133-.3900146484-1.0217895508-.3900146484-1.4117431641,0Z"/>
  <path class="cls-1" d="M14.0173015594,24.9997291565c0-.5518188477-.4470214844-.9983520508-.9984130859-.9983520508h-3.0502319336c-.5513305664,0-.9984130859.4465332031-.9984130859.9983520508,0,.5518798828.4470825195.9984130859.9984130859.9984130859h3.0502319336c.5513916016,0,.9984130859-.4465332031.9984130859-.9984130859Z"/>
  <path class="cls-1" d="M15.0771160126,13.665561676c-.3900146484-.3900146484-1.0217895508-.3900146484-1.4118041992,0s-.3900146484,1.0217895508,0,1.4117431641l2.1571655273,2.1571655273c.1950073242.1950073242.4504394531.2925415039.705871582.2925415039s.510925293-.0975341797.705871582-.2925415039c.3900146484-.3899536133.3900146484-1.0217895508,0-1.4117431641l-2.1571044922-2.1571655273Z"/>
</svg>