<?xml version="1.0" encoding="UTF-8"?>
<svg id="SupportStaff" xmlns="http://www.w3.org/2000/svg" viewBox="0 0 50 50">
  <defs>
    <style>
      .cls-1 {
        fill: #5f5f5f;
      }
    </style>
  </defs>
  <path class="cls-1" d="M40.6265544891,33.0458717346c-1.2713012695-4.2442626953-5.5424804688-6.1132202148-9.6842651367-6.1130371094-.2469482422,0-.4940795898.006652832-.739440918.0198364258-3.2855224609.1766967773-6.8179931641,1.7554321289-8.2915039062,4.8214111328-.9427490234,1.9616699219-1.7698974609,4.6884765625,1.1722412109,5.1032714844,1.3104248047.184753418,4.434387207.2719726562,7.6052246094.2719726562,3.3157348633,0,6.6826782227-.0954589844,8.0778198242-.2745361328,2.657409668-.3411254883,2.5194091797-1.6271362305,1.8599243164-3.828918457ZM39.9551677704,35.4184913635c-.0629272461.0969238281-.317199707.3362426758-1.3158569336.4644165039-1.2412109375.159362793-4.4362792969.266418457-7.9505004883.266418457-3.4579467773,0-6.3186035156-.1004638672-7.4655761719-.2622070312-.5620727539-.0792236328-.9213256836-.2581787109-1.0678100586-.5319213867-.135559082-.2532348633-.3428344727-1.0670166016.6572265625-3.1479492188,1.4040527344-2.9213867188,4.887512207-4.1185302734,7.4439086914-4.2559814453.2276000977-.0122680664.4567260742-.0184326172.6864013672-.0184326172,3.4362792969.0001831055,7.533203125,1.4188232422,8.7256469727,5.3999633789.1549682617.5175170898.5180053711,1.7294311523.2865600586,2.0856933594Z"/>
  <path class="cls-1" d="M22.403470993,27.5758399963c-1.1804199219-.4365234375-2.4673461914-.6529541016-3.7623901367-.6528930664-3.8239135742.0000610352-7.7163085938,1.8876342773-9.1282958984,5.5717163086-.4857788086,1.2674560547-1.3064575195,4.3726806641,1.0484008789,4.3726806641h8.5181274414c-.8358154297-3.5639648438.6637573242-6.964050293,3.3241577148-9.2915039062ZM10.5611858368,35.8673439026c-.3560180664,0-.4274902344-.1040039062-.4544067383-.1431274414-.2739868164-.3983764648-.1246948242-1.6597900391.3397827148-2.8717041016,1.39453125-3.6384277344,5.2860717773-4.9295043945,8.1948242188-4.9295654297.6237792969,0,1.2456665039.0562744141,1.8466186523.1655273438-1.9444580078,2.2611694336-2.867980957,5.0252685547-2.5880737305,7.7788696289h-7.3387451172Z"/>
  <path class="cls-1" d="M17.9055461884,24.7608375549c2.755859375,0,4.998046875-2.2416992188,4.998046875-4.9975585938s-2.2421875-4.998046875-4.998046875-4.998046875-4.998046875,2.2421875-4.998046875,4.998046875,2.2421875,4.9975585938,4.998046875,4.9975585938ZM17.9055461884,15.7652320862c2.2045898438,0,3.998046875,1.7934570312,3.998046875,3.998046875,0,2.2041015625-1.7934570312,3.9975585938-3.998046875,3.9975585938s-3.998046875-1.7934570312-3.998046875-3.9975585938c0-2.2045898438,1.7934570312-3.998046875,3.998046875-3.998046875Z"/>
  <path class="cls-1" d="M30.8567180634,24.7608375549c3.283203125,0,5.955078125-2.6713867188,5.955078125-5.955078125s-2.671875-5.955078125-5.955078125-5.955078125c-3.2841796875,0-5.9555664062,2.6713867188-5.9555664062,5.955078125s2.6713867188,5.955078125,5.9555664062,5.955078125ZM30.8567180634,13.8506813049c2.732421875,0,4.955078125,2.22265625,4.955078125,4.955078125s-2.22265625,4.955078125-4.955078125,4.955078125-4.9555664062-2.22265625-4.9555664062-4.955078125,2.2231445312-4.955078125,4.9555664062-4.955078125Z"/>
</svg>