<?xml version="1.0" encoding="UTF-8"?>
<svg id="WellnessRoom" xmlns="http://www.w3.org/2000/svg" viewBox="0 0 50 50">
  <defs>
    <style>
      .cls-1 {
        fill: #5f5f5f;
      }
    </style>
  </defs>
  <path class="cls-1" d="M31.469877243,13.6750221252c.15234375.197265625.1650390625.4716796875.0322265625.6821289062l-.60546875.9565429688c-.140625.220703125-.07421875.5141601562.146484375.6547851562.0771484375.0478515625.1640625.0732421875.2529296875.0732421875.1630859375,0,.3125-.0825195312.4013671875-.220703125l.60546875-.9565429688c.345703125-.5473632812.3125-1.2587890625-.083984375-1.7700195312l-1.0908203125-1.4086303711c-.1611328125-.208984375-.1650390625-.5029296875-.009765625-.71484375l.671875-.921875c.1533203125-.2114257812.1064453125-.5087890625-.10546875-.6625976562-.2099609375-.1538085938-.5068359375-.107421875-.6611328125.1040039062l-.6708984375.921875c-.4022827148.5517578125-.3915405273,1.3139648438.0263671875,1.853515625l1.0908203125,1.4091186523Z"/>
  <path class="cls-1" d="M28.2502117157,13.6750221252c.1533203125.197265625.166015625.4711914062.0322265625.6821289062l-.60546875.9565429688c-.068359375.1069335938-.08984375.2338867188-.0625.357421875.0283203125.1240234375.1025390625.2294921875.208984375.296875.076171875.0483398438.1640625.0737304688.25390625.0737304688.1630859375,0,.3134765625-.0825195312.400390625-.220703125l.60546875-.9565429688c.3466796875-.5463867188.3134765625-1.2573242188-.0830078125-1.7700195312l-1.0908203125-1.4091186523c-.1611328125-.2080078125-.1650390625-.5014648438-.0107421875-.7143554688l.6708984375-.921875c.0751953125-.1020507812.10546875-.2275390625.0859375-.3530273438-.01953125-.1245117188-.0869140625-.234375-.189453125-.3095703125-.212890625-.1547851562-.5087890625-.1064453125-.662109375.1040039062l-.6708984375.921875c-.4013671875.5512695312-.390625,1.3129882812.0263671875,1.853515625l1.0908203125,1.4091186523Z"/>
  <path class="cls-1" d="M34.6836833954,13.6750221252c.1533203125.197265625.166015625.4711914062.0322265625.6821289062l-.6054077148.9565429688c-.1396484375.220703125-.07421875.5141601562.146484375.654296875.076171875.0483398438.1640625.0737304688.2538452148.0737304688.1630859375,0,.3134765625-.0825195312.400390625-.220703125l.6064453125-.9565429688c.345703125-.5473632812.3125-1.2587890625-.083984375-1.7700195312l-1.0907592773-1.4091186523c-.1611328125-.2080078125-.1650390625-.5014648438-.0107421875-.7143554688l.6727905273-.921875c.1533203125-.2114257812.1064453125-.5087890625-.10546875-.6625976562s-.5087280273-.107421875-.6610717773.1040039062l-.671875.921875c-.40234375.5512695312-.390625,1.3134765625.02734375,1.853515625,0,0,1.08984375,1.4091186523,1.0897827148,1.4091186523Z"/>
  <path class="cls-1" d="M40.0298748016,38.7041969299h-1.6617431641c1.3428344727-.7413330078,2.0254516602-1.7985839844,2.0254516602-3.1593017578,0-2.1708984375-2.8104858398-3.87890625-7.0535888672-4.3310546875,1.2938842773-.5057983398,2.3505249023-1.2030639648,3.0741577148-2.0341186523.91015625-1.04296875,1.2314453125-2.2177734375.9052734375-3.3104858398-.32421875-1.0844726562-1.3115234375-1.8754882812-2.78125-2.2260742188-.2089233398-.0498046875-.4335327148-.0903320312-.6698608398-.1215820312.7860717773-.5756835938,1.2294311523-1.3530273438,1.2294311523-2.1732788086,0-1.69921875-1.8905639648-3.08203125-4.2138061523-3.08203125-2.3231811523,0-4.2128295898,1.3828125-4.2128295898,3.08203125,0,1.1976928711.9580078125,2.2816772461,2.421875,2.7855834961-2.2490234375.775390625-3.84375,1.8857421875-4.5126342773,3.1483764648-.1817626953.3426513672-.2860107422.6943969727-.3330688477,1.0514526367-.7598266602.2161254883-1.5138549805.5328369141-2.2199707031.948425293-.5133056641-1.6713867188-1.6618041992-3.159362793-3.3360595703-4.2380981445l-.2709960938-.1743164062-.2705078125.1743164062c-1.6750488281,1.0787963867-2.8237915039,2.5668334961-3.337097168,4.2383422852-1.5706176758-.9229125977-3.3782348633-1.3871459961-4.9567260742-1.2452392578l-.4174804688.037109375-.0366210938.4169921875c-.1865234375,2.1129150391.7239379883,4.6120605469,2.2747802734,6.364440918-.8963623047.4916381836-1.6742553711,1.1978759766-2.2137451172,2.0573120117l-.1669921875.265625.1669921875.265625c.2951049805.4702758789.6670532227.8901367188,1.0816040039,1.2599487305h-.5744018555c-.5523071289,0-1.0000610352.447265625-1.0000610352,1.0000610352s.4477539062,1.0001220703,1.0000610352,1.0001220703h30.0598144531c.5527954102,0,1.0001220703-.4473266602,1.0001220703-1.0001220703s-.4473266602-1.0000610352-1.0001220703-1.0000610352ZM27.6115398407,21.3483009338c0-1.1806640625,1.4677734375-2.1411132812,3.2723999023-2.1411132812,1.8046875,0,3.2724609375.9604492188,3.2724609375,2.1411132812,0,1.1801147461-1.4677734375,2.1405639648-3.2724609375,2.1405639648-1.8046264648,0-3.2723999023-.9604492188-3.2723999023-2.1405639648ZM25.4113445282,27.7226905823c.6201171875-1.1708984375,2.2568359375-2.2020874023,4.6083374023-2.9047241211.9365234375-.2797851562,1.89453125-.427734375,2.7685546875-.427734375.548828125,0,1.0634765625.056640625,1.5302734375.16796875,1.1298217773.26953125,1.8749389648.8305664062,2.0985717773,1.5805664062.23046875.7714233398-.021484375,1.6317749023-.7109375,2.4227905273-.767578125.87890625-2.0243530273,1.6123046875-3.5390014648,2.064453125-1.5576171875.4658203125-3.2294311523.5888061523-4.5780639648.337890625-.1304321289-.0243530273-.2371826172-.0646972656-.358215332-.0956420898.1955566406-.8072509766.2750854492-1.6171875.207824707-2.3770141602l-.037109375-.4169921875-.4169921875-.037109375c-.5555419922-.0500488281-1.1384887695-.0213623047-1.7282714844.0714111328.0408325195-.1298828125.0878295898-.2590942383.1550292969-.3858642578ZM22.2678508759,30.3259620667c1.3154296875-.8382568359,2.8386230469-1.2967529297,4.1952514648-1.3132324219.017578125,1.8701171875-.8701171875,4.0126342773-2.2909545898,5.4598999023-1.1328125,1.153137207-2.2451171875,1.8900756836-4.2764282227,2.2220458984,1.9971923828-1.9763183594,2.4400024414-3.542175293,2.4400024414-5.4241943359,0-.3186645508-.0241699219-.633605957-.0678710938-.944519043ZM10.3769207001,29.0127296448c1.3656005859-.0247192383,2.8812255859.4686889648,4.1956176758,1.3114013672-.0438842773.3115234375-.0682373047.6270751953-.0682373047.9463500977,0,1.8811645508.4427490234,3.4476318359,2.4403076172,5.4241943359-2.0311279297-.33203125-3.143371582-1.0689697266-4.2757568359-2.2220458984-1.4208374023-1.4462890625-2.3090209961-3.5888061523-2.2919311523-5.4598999023ZM14.1649456024,39.2040138245c-1.3569335938-.0126953125-2.796875-.8154296875-3.6757202148-2.025390625.4880371094-.6730957031,1.1557617188-1.2159423828,1.9111938477-1.5777587891,1.2280273438,1.1384887695,2.5844116211,1.8822021484,4.9616699219,2.1658935547-1.1890869141,1.1911010742-2.077331543,1.4430541992-3.1971435547,1.4372558594ZM17.8280925751,38.7041969299c.194152832-.1825561523.3903198242-.3784179688.5921630859-.5999755859.2018432617.2215576172.3980102539.4174194336.5921630859.5999755859h-1.1843261719ZM18.420255661,36.7059669495c-2.44140625-2.1161499023-2.9159545898-3.5624389648-2.9159545898-5.4354858398,0-2.0223999023,1.0585327148-3.9022827148,2.9159545898-5.2039794922,1.857421875,1.3016967773,2.9154663086,3.1815795898,2.9154663086,5.2039794922,0,1.8740234375-.474609375,3.3193359375-2.9154663086,5.4354858398ZM22.6755657196,39.2040138245c-1.1000366211.0032958984-2.0017089844-.2463378906-3.1957397461-1.4373779297,2.3763427734-.2838134766,3.732421875-1.0274658203,4.9605102539-2.1656494141.7553100586.3617553711,1.4229736328.9046020508,1.9104614258,1.5776367188-.8784179688,1.2099609375-2.3182983398,2.0126953125-3.6752319336,2.025390625ZM26.4072551727,38.6097145081c.3704223633-.3464355469.7014770508-.7363891602.9708862305-1.1654663086l.1669921875-.265625-.1669921875-.265625c-.5402832031-.859375-1.3178100586-1.5655517578-2.2141113281-2.0571899414.6382446289-.7216186523,1.1599731445-1.5720825195,1.5494995117-2.4674072266,1.587890625-.2924194336,3.2613525391-.3552246094,4.3413085938-.3552246094,4.7089233398,0,8.3983154297,1.54296875,8.3983154297,3.51171875,0,2.9032592773-4.5673217773,3.5126342773-8.3983154297,3.5126342773-1.8148193359,0-3.3653564453-.1604614258-4.6475830078-.4478149414Z"/>
</svg>